<?xml version="1.0" encoding="utf-8"?>
<!-- Generator: Adobe Illustrator 22.0.1, SVG Export Plug-In . SVG Version: 6.00 Build 0)  -->
<svg version="1.1" id="Layer_1" xmlns="http://www.w3.org/2000/svg" xmlns:xlink="http://www.w3.org/1999/xlink" x="0px" y="0px"
	 viewBox="0 0 595.3 841.9" style="enable-background:new 0 0 595.3 841.9;" xml:space="preserve">
<style type="text/css">
	.st0{stroke:#000000;stroke-width:0.25;stroke-miterlimit:10;}
	.st1{fill:url(#SVGID_1_);}
	.st2{fill:url(#SVGID_2_);}
	.st3{fill:url(#SVGID_3_);}
	.st4{fill:url(#SVGID_4_);}
	.st5{fill:url(#SVGID_5_);}
	.st6{fill:url(#SVGID_6_);}
	.st7{fill:url(#SVGID_7_);}
	.st8{fill:url(#SVGID_8_);}
	.st9{fill:url(#SVGID_9_);}
	.st10{fill:url(#SVGID_10_);}
	.st11{fill:url(#SVGID_11_);}
	.st12{fill:url(#SVGID_12_);}
	.st13{fill:url(#SVGID_13_);}
	.st14{fill:url(#SVGID_14_);}
	.st15{fill:url(#SVGID_15_);}
	.st16{fill:url(#SVGID_16_);}
	.st17{fill:url(#SVGID_17_);}
	.st18{fill:url(#SVGID_18_);}
	.st19{fill:url(#SVGID_19_);}
	.st20{fill:url(#SVGID_20_);}
	.st21{fill:url(#SVGID_21_);}
	.st22{fill:url(#SVGID_22_);}
	.st23{fill:url(#SVGID_23_);}
	.st24{fill:url(#SVGID_24_);}
	.st25{fill:url(#SVGID_25_);}
	.st26{fill:url(#SVGID_26_);}
	.st27{fill:url(#SVGID_27_);}
	.st28{fill:url(#SVGID_28_);}
	.st29{fill:url(#SVGID_29_);}
	.st30{fill:url(#SVGID_30_);}
	.st31{fill:url(#SVGID_31_);}
	.st32{fill:url(#SVGID_32_);}
	.st33{fill:url(#SVGID_33_);}
	.st34{fill:url(#SVGID_34_);}
	.st35{fill:url(#SVGID_35_);}
	.st36{fill:url(#SVGID_36_);}
	.st37{fill:url(#SVGID_37_);}
	.st38{fill:url(#SVGID_38_);}
	.st39{fill:url(#SVGID_39_);}
	.st40{fill:url(#SVGID_40_);}
	.st41{fill:url(#SVGID_41_);}
	.st42{fill:url(#SVGID_42_);}
	.st43{fill:url(#SVGID_43_);}
	.st44{fill:url(#SVGID_44_);}
	.st45{fill:url(#SVGID_45_);}
	.st46{fill:url(#SVGID_46_);}
	.st47{fill:url(#SVGID_47_);}
	.st48{fill:url(#SVGID_48_);}
	.st49{fill:url(#SVGID_49_);}
	.st50{fill:url(#SVGID_50_);}
	.st51{fill:url(#SVGID_51_);}
	.st52{fill:url(#SVGID_52_);}
	.st53{fill:url(#SVGID_53_);}
	.st54{fill:url(#SVGID_54_);}
	.st55{fill:url(#SVGID_55_);}
	.st56{fill:url(#SVGID_56_);}
	.st57{fill:url(#SVGID_57_);}
	.st58{fill:url(#SVGID_58_);}
	.st59{fill:url(#SVGID_59_);}
	.st60{fill:url(#SVGID_60_);}
	.st61{fill:url(#SVGID_61_);}
	.st62{fill:url(#SVGID_62_);}
	.st63{fill:url(#SVGID_63_);}
	.st64{fill:url(#SVGID_64_);}
	.st65{fill:url(#SVGID_65_);}
	.st66{fill:url(#SVGID_66_);}
	.st67{fill:url(#SVGID_67_);}
	.st68{fill:url(#SVGID_68_);}
	.st69{fill:url(#SVGID_69_);}
	.st70{fill:url(#SVGID_70_);}
	.st71{fill:url(#SVGID_71_);}
	.st72{fill:url(#SVGID_72_);}
	.st73{fill:url(#SVGID_73_);}
	.st74{fill:url(#SVGID_74_);}
	.st75{fill:url(#SVGID_75_);}
	.st76{fill:url(#SVGID_76_);}
	.st77{fill:url(#SVGID_77_);}
	.st78{fill:url(#SVGID_78_);}
	.st79{fill:url(#SVGID_79_);}
	.st80{fill:url(#SVGID_80_);}
	.st81{fill:url(#SVGID_81_);}
	.st82{fill:url(#SVGID_82_);}
	.st83{fill:url(#SVGID_83_);}
	.st84{fill:url(#SVGID_84_);}
	.st85{fill:url(#SVGID_85_);}
</style>
<symbol  id="_x31_" viewBox="-188.9 -105.8 377.8 211.6">
	<polygon class="st0" points="188.8,94.7 -188.8,62.3 -188.8,73.3 188.8,105.7 	"/>
	<polygon class="st0" points="188.8,66.7 -188.8,34.3 -188.8,45.3 188.8,77.7 	"/>
	<polygon class="st0" points="188.8,38.7 -188.8,6.3 -188.8,17.3 188.8,49.7 	"/>
	<polygon class="st0" points="188.8,10.7 -188.8,-21.7 -188.8,-10.7 188.8,21.7 	"/>
	<polygon class="st0" points="188.8,-17.3 -188.8,-49.7 -188.8,-38.7 188.8,-6.3 	"/>
	<polygon class="st0" points="188.8,-45.3 -188.8,-77.7 -188.8,-66.7 188.8,-34.3 	"/>
	<polygon class="st0" points="188.8,-73.3 -188.8,-105.7 -188.8,-94.7 188.8,-62.3 	"/>
</symbol>
<symbol  id="_x32_" viewBox="-60.5 -67.8 121 135.6">
	
		<use xlink:href="#_x31_"  width="377.8" height="211.6" x="-188.9" y="-105.8" transform="matrix(0.3204 0 0 0.6408 0 0)" style="overflow:visible;"/>
</symbol>
<g>
	<linearGradient id="SVGID_1_" gradientUnits="userSpaceOnUse" x1="303.7958" y1="618.7914" x2="148.7958" y2="364.2914">
		<stop  offset="0" style="stop-color:#462623"/>
		<stop  offset="0.2415" style="stop-color:#CB9B50"/>
		<stop  offset="0.4415" style="stop-color:#F2E27B"/>
		<stop  offset="0.5" style="stop-color:#F5F2C0"/>
		<stop  offset="0.5585" style="stop-color:#F2E27B"/>
		<stop  offset="0.7732" style="stop-color:#CB9B50"/>
		<stop  offset="1" style="stop-color:#462623"/>
	</linearGradient>
	<path class="st1" d="M264.9,585.7c1.6,0.3,3.8,0.7,5.4,0.9c5.2,0.8,5.5,0.8,8.9,1.2c5.2,0.5,5.3,0.5,8.1,0.7c5,0.2,5.1,0.2,7.7,0.3
		c5.1,0,5.1,0,7.7-0.1l1.5,0C290.1,589,278.7,588.2,264.9,585.7"/>
	<linearGradient id="SVGID_2_" gradientUnits="userSpaceOnUse" x1="303.7755" y1="618.8037" x2="148.7755" y2="364.3037">
		<stop  offset="0" style="stop-color:#462623"/>
		<stop  offset="0.2415" style="stop-color:#CB9B50"/>
		<stop  offset="0.4415" style="stop-color:#F2E27B"/>
		<stop  offset="0.5" style="stop-color:#F5F2C0"/>
		<stop  offset="0.5585" style="stop-color:#F2E27B"/>
		<stop  offset="0.7732" style="stop-color:#CB9B50"/>
		<stop  offset="1" style="stop-color:#462623"/>
	</linearGradient>
	<path class="st2" d="M264.9,585.7c1.6,0.3,3.8,0.7,5.4,0.9c5.2,0.8,5.5,0.8,8.9,1.2c5.2,0.5,5.3,0.5,8.1,0.7c5,0.2,5.1,0.2,7.7,0.3
		c5.1,0,5.1,0,7.7-0.1l1.5,0C290.1,589,278.7,588.2,264.9,585.7 M261.8,585.1c5.8,1.1,23.5,4.5,45,3.4c-1.2,0-2.8,0.1-4,0.2
		c-5.1,0.1-5.1,0.1-7.7,0.1c-5-0.1-5.1-0.1-7.7-0.3c-5-0.3-5.2-0.4-8.1-0.7c-5-0.6-5.5-0.6-8.9-1.2
		C265.2,585.8,264.9,585.8,261.8,585.1"/>
	<linearGradient id="SVGID_3_" gradientUnits="userSpaceOnUse" x1="320.8277" y1="608.4183" x2="165.8277" y2="353.9183">
		<stop  offset="0" style="stop-color:#462623"/>
		<stop  offset="0.2415" style="stop-color:#CB9B50"/>
		<stop  offset="0.4415" style="stop-color:#F2E27B"/>
		<stop  offset="0.5" style="stop-color:#F5F2C0"/>
		<stop  offset="0.5585" style="stop-color:#F2E27B"/>
		<stop  offset="0.7732" style="stop-color:#CB9B50"/>
		<stop  offset="1" style="stop-color:#462623"/>
	</linearGradient>
	<path class="st3" d="M174.1,538.5c1,1,2.3,2.2,3.4,3.2c3.7,3.3,3.7,3.3,5.6,5c3.8,3.2,3.8,3.2,5.8,4.8c3.9,3,4,3,6.1,4.5
		c1.5,1,3.4,2.4,4.9,3.4c42.3,25.6,135.7,28,168,14.9c1.4-0.6,3.2-1.4,4.5-2c4.5-2.2,4.7-2.3,7.3-3.6c4.5-2.4,4.5-2.4,7-3.8
		c4.3-2.6,4.4-2.6,6.6-4.1l1.9-1.3C358.1,581,215.8,576.9,174.1,538.5"/>
	<linearGradient id="SVGID_4_" gradientUnits="userSpaceOnUse" x1="321.1827" y1="608.2021" x2="166.1827" y2="353.7021">
		<stop  offset="0" style="stop-color:#462623"/>
		<stop  offset="0.2415" style="stop-color:#CB9B50"/>
		<stop  offset="0.4415" style="stop-color:#F2E27B"/>
		<stop  offset="0.5" style="stop-color:#F5F2C0"/>
		<stop  offset="0.5585" style="stop-color:#F2E27B"/>
		<stop  offset="0.7732" style="stop-color:#CB9B50"/>
		<stop  offset="1" style="stop-color:#462623"/>
	</linearGradient>
	<path class="st4" d="M174.1,538.5c1,1,2.3,2.2,3.4,3.2c3.7,3.3,3.7,3.3,5.6,5c3.8,3.2,3.8,3.2,5.8,4.8c3.9,3,4,3,6.1,4.5
		c1.5,1,3.4,2.4,4.9,3.4c42.3,25.6,135.7,28,168,14.9c1.4-0.6,3.2-1.4,4.5-2c4.5-2.2,4.7-2.3,7.3-3.6c4.5-2.4,4.5-2.4,7-3.8
		c4.3-2.6,4.4-2.6,6.6-4.1l1.9-1.3C358.1,581,215.8,576.9,174.1,538.5 M173.2,537.7c46.1,40.4,191.8,40.4,223,21.1l-2.9,1.9
		c-4.2,2.7-4.3,2.7-6.6,4.1c-4.4,2.5-4.5,2.6-7,3.8c-4.5,2.3-4.7,2.4-7.3,3.6c-1.7,0.8-3.9,1.8-5.6,2.5
		c-36.6,14-128.5,8.8-165.9-14.6c-1.8-1.2-4.2-2.8-6-4.1c-4-2.9-4-2.9-6.1-4.5c-3.9-3.1-3.9-3.1-5.8-4.8c-3.7-3.2-3.7-3.2-5.6-5
		C176.1,540.5,174.5,538.9,173.2,537.7"/>
	<linearGradient id="SVGID_5_" gradientUnits="userSpaceOnUse" x1="350.6678" y1="590.2446" x2="195.6678" y2="335.7446">
		<stop  offset="0" style="stop-color:#462623"/>
		<stop  offset="0.2415" style="stop-color:#CB9B50"/>
		<stop  offset="0.4415" style="stop-color:#F2E27B"/>
		<stop  offset="0.5" style="stop-color:#F5F2C0"/>
		<stop  offset="0.5585" style="stop-color:#F2E27B"/>
		<stop  offset="0.7732" style="stop-color:#CB9B50"/>
		<stop  offset="1" style="stop-color:#462623"/>
	</linearGradient>
	<path class="st5" d="M130.3,470.2c0.7,1.8,1.6,4.3,2.3,6.1c1.9,4.6,1.9,4.6,2.9,6.9c1.9,4.3,2,4.4,3,6.5c2.1,4.2,2.1,4.3,3.3,6.4
		l1.2,2.1c39.1,57.8,259.7,61,289.1,28.9l0.6-0.7c3.1-3.7,3.1-3.7,4.6-5.6c2.9-3.8,2.9-3.8,4.3-5.8c2.8-3.9,2.8-3.9,4.1-6
		c1.1-1.7,2.5-3.9,3.6-5.7C416.8,544.5,158.4,532,130.3,470.2"/>
	<linearGradient id="SVGID_6_" gradientUnits="userSpaceOnUse" x1="351.0621" y1="590.0044" x2="196.0621" y2="335.5044">
		<stop  offset="0" style="stop-color:#462623"/>
		<stop  offset="0.2415" style="stop-color:#CB9B50"/>
		<stop  offset="0.4415" style="stop-color:#F2E27B"/>
		<stop  offset="0.5" style="stop-color:#F5F2C0"/>
		<stop  offset="0.5585" style="stop-color:#F2E27B"/>
		<stop  offset="0.7732" style="stop-color:#CB9B50"/>
		<stop  offset="1" style="stop-color:#462623"/>
	</linearGradient>
	<path class="st6" d="M130.3,470.2c0.7,1.8,1.6,4.3,2.3,6.1c1.9,4.6,1.9,4.6,2.9,6.9c1.9,4.3,2,4.4,3,6.5c2.1,4.2,2.1,4.3,3.3,6.4
		l1.2,2.1c39.1,57.8,259.7,61,289.1,28.9l0.6-0.7c3.1-3.7,3.1-3.7,4.6-5.6c2.9-3.8,2.9-3.8,4.3-5.8c2.8-3.9,2.8-3.9,4.1-6
		c1.1-1.7,2.5-3.9,3.6-5.7C416.8,544.5,158.4,532,130.3,470.2 M130,469.1c28.5,62.5,287.6,75,319.9,33.2l-0.3,0.5
		c-2.5,4.1-2.5,4.1-3.8,6.1c-2.6,3.9-2.7,4-4.1,6c-2.8,3.8-2.8,3.9-4.3,5.8c-3,3.8-3,3.8-4.6,5.6l-1.3,1.5
		c-37.6,35.6-257.2,22.8-287.8-28.7l-1.7-3.1c-2.2-4.2-2.2-4.2-3.3-6.4c-2.1-4.3-2.1-4.3-3-6.5c-2-4.5-2-4.5-2.9-6.9
		c-1.8-4.6-1.8-4.6-2.6-6.9L130,469.1"/>
	<linearGradient id="SVGID_7_" gradientUnits="userSpaceOnUse" x1="383.8945" y1="570.0083" x2="228.8945" y2="315.5083">
		<stop  offset="0" style="stop-color:#462623"/>
		<stop  offset="0.2415" style="stop-color:#CB9B50"/>
		<stop  offset="0.4415" style="stop-color:#F2E27B"/>
		<stop  offset="0.5" style="stop-color:#F5F2C0"/>
		<stop  offset="0.5585" style="stop-color:#F2E27B"/>
		<stop  offset="0.7732" style="stop-color:#CB9B50"/>
		<stop  offset="1" style="stop-color:#462623"/>
	</linearGradient>
	<path class="st7" d="M121.7,390.3c-0.2,1.9-0.5,4.3-0.6,6.2c-0.4,4.9-0.4,4.9-0.5,7.4c-0.2,4.8-0.2,4.9-0.2,7.4
		c0,4.9,0,4.9,0.1,7.4l0.1,2.1c12,74.5,316.5,84.3,346.1,41.3c0.6-0.9,1.2-2.2,1.6-3.2l0.9-3.3c1.2-4.8,1.2-4.8,1.7-7.2
		c1-4.8,1-4.8,1.4-7.2c0.8-4.7,0.8-4.8,1.1-7.3c0.1-1.1,0.3-2.6,0.4-3.7c-16,56.3-308.6,35.8-347.9-24.3
		C121.1,398.7,121.5,393.1,121.7,390.3"/>
	<linearGradient id="SVGID_8_" gradientUnits="userSpaceOnUse" x1="383.7686" y1="570.085" x2="228.7686" y2="315.585">
		<stop  offset="0" style="stop-color:#462623"/>
		<stop  offset="0.2415" style="stop-color:#CB9B50"/>
		<stop  offset="0.4415" style="stop-color:#F2E27B"/>
		<stop  offset="0.5" style="stop-color:#F5F2C0"/>
		<stop  offset="0.5585" style="stop-color:#F2E27B"/>
		<stop  offset="0.7732" style="stop-color:#CB9B50"/>
		<stop  offset="1" style="stop-color:#462623"/>
	</linearGradient>
	<path class="st8" d="M121.7,390.3c-0.2,1.9-0.5,4.3-0.6,6.2c-0.4,4.9-0.4,4.9-0.5,7.4c-0.2,4.8-0.2,4.9-0.2,7.4
		c0,4.9,0,4.9,0.1,7.4l0.1,2.1c12,74.5,316.5,84.3,346.1,41.3c0.6-0.9,1.2-2.2,1.6-3.2l0.9-3.3c1.2-4.8,1.2-4.8,1.7-7.2
		c1-4.8,1-4.8,1.4-7.2c0.8-4.7,0.8-4.8,1.1-7.3c0.1-1.1,0.3-2.6,0.4-3.7c-16,56.3-308.6,35.8-347.9-24.3
		C121.1,398.7,121.5,393.1,121.7,390.3 M121.9,389.2c-1.3,84.2,312.6,83,348.3,46.9c1.2-1.2,3-3.1,3.7-6.9c-0.2,1.4-0.4,3.4-0.5,4.8
		c-0.7,4.9-0.7,4.9-1.1,7.3c-0.9,4.8-0.9,4.8-1.4,7.2c-1.1,4.8-1.1,4.8-1.7,7.2c-0.3,1.3-0.8,3-1.2,4.3
		c-26.5,57.2-327.5,28.6-346.4-32.9c-0.5-1.5-0.8-3.6-0.9-5.2l-0.2-3.2c-0.1-4.9-0.1-4.9-0.1-7.4c0.1-4.9,0.1-4.9,0.2-7.4
		c0.3-4.9,0.3-4.9,0.5-7.4C121.5,391.7,121.5,391.6,121.9,389.2"/>
	<linearGradient id="SVGID_9_" gradientUnits="userSpaceOnUse" x1="417.5664" y1="549.5009" x2="262.5664" y2="295.0009">
		<stop  offset="0" style="stop-color:#462623"/>
		<stop  offset="0.2415" style="stop-color:#CB9B50"/>
		<stop  offset="0.4415" style="stop-color:#F2E27B"/>
		<stop  offset="0.5" style="stop-color:#F5F2C0"/>
		<stop  offset="0.5585" style="stop-color:#F2E27B"/>
		<stop  offset="0.7732" style="stop-color:#CB9B50"/>
		<stop  offset="1" style="stop-color:#462623"/>
	</linearGradient>
	<path class="st9" d="M149.3,314.6c-1.1,1.7-2.6,4.1-3.7,5.8c-2.4,4.1-2.4,4.1-3.6,6.2c-2.2,4.2-2.2,4.2-3.3,6.4
		c-2.1,4.3-2.1,4.3-3.1,6.5l-0.9,1.9c-23.2,72.2,256.1,90.5,324.8,55.7c13.1-6.7,12.8-12.3,12.7-14.9c-0.4-2.1-0.9-4.9-1.3-7
		c-1-4.7-1-4.8-1.7-7.2c-1.2-4.7-1.2-4.7-2-7.1c-0.7-2.1-1.5-4.9-2.2-7c6.4,39.1-223.1,48.9-301.9-3.7
		C146.4,339.1,141.6,326.7,149.3,314.6"/>
	<linearGradient id="SVGID_10_" gradientUnits="userSpaceOnUse" x1="417.4182" y1="549.5911" x2="262.4182" y2="295.0911">
		<stop  offset="0" style="stop-color:#462623"/>
		<stop  offset="0.2415" style="stop-color:#CB9B50"/>
		<stop  offset="0.4415" style="stop-color:#F2E27B"/>
		<stop  offset="0.5" style="stop-color:#F5F2C0"/>
		<stop  offset="0.5585" style="stop-color:#F2E27B"/>
		<stop  offset="0.7732" style="stop-color:#CB9B50"/>
		<stop  offset="1" style="stop-color:#462623"/>
	</linearGradient>
	<path class="st10" d="M149.3,314.6c-1.1,1.7-2.6,4.1-3.7,5.8c-2.4,4.1-2.4,4.1-3.6,6.2c-2.2,4.2-2.2,4.2-3.3,6.4
		c-2.1,4.3-2.1,4.3-3.1,6.5l-0.9,1.9c-23.2,72.2,256.1,90.5,324.8,55.7c13.1-6.7,12.8-12.3,12.7-14.9c-0.4-2.1-0.9-4.9-1.3-7
		c-1-4.7-1-4.8-1.7-7.2c-1.2-4.7-1.2-4.7-2-7.1c-0.7-2.1-1.5-4.9-2.2-7c6.4,39.1-223.1,48.9-301.9-3.7
		C146.4,339.1,141.6,326.7,149.3,314.6 M150,313.7c-32.5,58.9,189,87.8,285,61.4c12.6-3.5,33.3-11,29.8-22.1l0.3,1
		c1.6,4.7,1.6,4.7,2.3,7c1.4,4.7,1.4,4.7,2,7.1c1.1,4.8,1.1,4.8,1.7,7.2c0.9,4.7,0.9,4.8,1.4,7.2l0.1,0.9
		c-1,52.3-287.6,37.8-333.4-16.9c-8.2-9.8-7-17.6-4.8-23.9l1.3-3c2-4.4,2-4.4,3.1-6.5c2.2-4.3,2.2-4.3,3.3-6.4
		c2.3-4.2,2.3-4.2,3.6-6.2c2.5-4.1,2.5-4.1,3.8-6.1L150,313.7"/>
	<g>
		<linearGradient id="SVGID_11_" gradientUnits="userSpaceOnUse" x1="515.7881" y1="489.6801" x2="360.7881" y2="235.1802">
			<stop  offset="0" style="stop-color:#462623"/>
			<stop  offset="0.2415" style="stop-color:#CB9B50"/>
			<stop  offset="0.4415" style="stop-color:#F2E27B"/>
			<stop  offset="0.5" style="stop-color:#F5F2C0"/>
			<stop  offset="0.5585" style="stop-color:#F2E27B"/>
			<stop  offset="0.7732" style="stop-color:#CB9B50"/>
			<stop  offset="1" style="stop-color:#462623"/>
		</linearGradient>
		<path class="st11" d="M363,247.5c7.2,2.5,14.2,5.6,20.8,9.3c-1-0.6-2.4-1.3-3.5-1.9c-4.6-2.4-4.7-2.4-7.3-3.6
			c-4.8-2.2-4.9-2.2-7.7-3.4c-4.9-2-5.1-2.1-8.2-3.2l-0.4-0.1C358.9,245.4,360.9,246.5,363,247.5"/>
		<linearGradient id="SVGID_12_" gradientUnits="userSpaceOnUse" x1="447.6106" y1="531.2028" x2="292.6106" y2="276.7028">
			<stop  offset="0" style="stop-color:#462623"/>
			<stop  offset="0.2415" style="stop-color:#CB9B50"/>
			<stop  offset="0.4415" style="stop-color:#F2E27B"/>
			<stop  offset="0.5" style="stop-color:#F5F2C0"/>
			<stop  offset="0.5585" style="stop-color:#F2E27B"/>
			<stop  offset="0.7732" style="stop-color:#CB9B50"/>
			<stop  offset="1" style="stop-color:#462623"/>
		</linearGradient>
		<path class="st12" d="M212.1,256.5c-1.1,0.6-2.5,1.4-3.5,2c-4.2,2.5-4.4,2.6-6.6,4.1c-4.1,2.7-4.2,2.8-6.4,4.3
			c-4,2.9-4.1,2.9-6.1,4.5c-1.7,1.3-3.9,3.1-5.6,4.5c-38.2,35.6,52.3,62.2,134,65.6c75.1,3.1,137.4-11.9,125.7-30.2l-1.6-2.3
			c-2.8-3.8-2.8-3.9-4.3-5.8c-2.9-3.7-3-3.8-4.6-5.7c-3.1-3.6-3.2-3.7-4.8-5.5c-1-1.1-2.4-2.6-3.5-3.7
			c16.2,20.8-64.7,34.9-142.1,24.9c-68.3-8.9-102.7-31.6-78.3-51.7C205.4,260.8,207.4,259.1,212.1,256.5"/>
	</g>
	<linearGradient id="SVGID_13_" gradientUnits="userSpaceOnUse" x1="447.2216" y1="531.4397" x2="292.2216" y2="276.9397">
		<stop  offset="0" style="stop-color:#462623"/>
		<stop  offset="0.2415" style="stop-color:#CB9B50"/>
		<stop  offset="0.4415" style="stop-color:#F2E27B"/>
		<stop  offset="0.5" style="stop-color:#F5F2C0"/>
		<stop  offset="0.5585" style="stop-color:#F2E27B"/>
		<stop  offset="0.7732" style="stop-color:#CB9B50"/>
		<stop  offset="1" style="stop-color:#462623"/>
	</linearGradient>
	<path class="st13" d="M363,247.5c7.2,2.5,14.2,5.6,20.8,9.3c-1-0.6-2.4-1.3-3.5-1.9c-4.6-2.4-4.7-2.4-7.3-3.6
		c-4.8-2.2-4.9-2.2-7.7-3.4c-4.9-2-5.1-2.1-8.2-3.2l-0.4-0.1C358.9,245.4,360.9,246.5,363,247.5 M212.1,256.5
		c-1.1,0.6-2.5,1.4-3.5,2c-4.2,2.5-4.4,2.6-6.6,4.1c-4.1,2.7-4.2,2.8-6.4,4.3c-4,2.9-4.1,2.9-6.1,4.5c-1.7,1.3-3.9,3.1-5.6,4.5
		c-38.2,35.6,52.3,62.2,134,65.6c75.1,3.1,137.4-11.9,125.7-30.2l-1.6-2.3c-2.8-3.8-2.8-3.9-4.3-5.8c-2.9-3.7-3-3.8-4.6-5.7
		c-3.1-3.6-3.2-3.7-4.8-5.5c-1-1.1-2.4-2.6-3.5-3.7c16.2,20.8-64.7,34.9-142.1,24.9c-68.3-8.9-102.7-31.6-78.3-51.7
		C205.4,260.8,207.4,259.1,212.1,256.5 M362.3,247.3c-2.3-1.3-2.9-1.7-6.8-3.2l1.6,0.6c4.8,1.8,5.2,1.9,8.2,3.2
		c4.7,2,4.9,2.1,7.7,3.4c4.6,2.2,4.7,2.3,7.3,3.6c1.4,0.8,3.3,1.8,4.7,2.6C377.8,253.4,370.2,250,362.3,247.3 M213.3,255.8
		c-39.3,23,4.2,42.5,36.1,50.3c79,19.4,186.6,6.1,176.8-15.7c-0.4-1-1.4-2.1-2.1-2.9c1.3,1.3,3,3.1,4.3,4.5c3.2,3.5,3.2,3.6,4.8,5.5
		c3.1,3.7,3.1,3.7,4.6,5.7c2.9,3.8,2.9,3.8,4.3,5.8c0.7,0.9,1.5,2.2,2.2,3.2c15.8,31.8-142.7,41.7-226,14.2
		c-41.9-13.8-55.1-32.4-35.2-49.6l0.7-0.6c3.8-3.2,3.8-3.2,5.9-4.7c3.9-3,4-3,6.1-4.5c4.2-2.9,4.2-2.9,6.4-4.3
		c4.3-2.7,4.3-2.7,6.6-4.1C210,257.6,211.8,256.6,213.3,255.8"/>
	<linearGradient id="SVGID_14_" gradientUnits="userSpaceOnUse" x1="470.7086" y1="517.1353" x2="315.7086" y2="262.6353">
		<stop  offset="0" style="stop-color:#462623"/>
		<stop  offset="0.2415" style="stop-color:#CB9B50"/>
		<stop  offset="0.4415" style="stop-color:#F2E27B"/>
		<stop  offset="0.5" style="stop-color:#F5F2C0"/>
		<stop  offset="0.5585" style="stop-color:#F2E27B"/>
		<stop  offset="0.7732" style="stop-color:#CB9B50"/>
		<stop  offset="1" style="stop-color:#462623"/>
	</linearGradient>
	<path class="st14" d="M363.2,247.7c13,10.2-18.8,14.3-22.5,14.8c-42,5-83.5-6.6-75.3-17.4c5.4-7.1,30.3-9.2,35.5-5.6
		c0,0.2,0,0.5,0,0.8c-0.7,0.5-0.9,0.7-3.1,1.2c9.6-1.2,15.7-1.5,25-1.3c-8.7-11.7-82-5.3-85.6,13.6c-4.7,24.7,115.4,38.7,149.4,17.3
		c9.9-6.2,1.6-11.4-1.1-13.1C378.6,253.8,371.1,250.4,363.2,247.7"/>
	<linearGradient id="SVGID_15_" gradientUnits="userSpaceOnUse" x1="470.3768" y1="517.3373" x2="315.3768" y2="262.8373">
		<stop  offset="0" style="stop-color:#462623"/>
		<stop  offset="0.2415" style="stop-color:#CB9B50"/>
		<stop  offset="0.4415" style="stop-color:#F2E27B"/>
		<stop  offset="0.5" style="stop-color:#F5F2C0"/>
		<stop  offset="0.5585" style="stop-color:#F2E27B"/>
		<stop  offset="0.7732" style="stop-color:#CB9B50"/>
		<stop  offset="1" style="stop-color:#462623"/>
	</linearGradient>
	<path class="st15" d="M363.2,247.7c13,10.2-18.8,14.3-22.5,14.8c-42,5-83.5-6.6-75.3-17.4c5.4-7.1,30.3-9.2,35.5-5.6
		c0,0.2,0,0.5,0,0.8c-0.7,0.5-0.9,0.7-3.1,1.2c9.6-1.2,15.7-1.5,25-1.3c-8.7-11.7-82-5.3-85.6,13.6c-4.7,24.7,115.4,38.7,149.4,17.3
		c9.9-6.2,1.6-11.4-1.1-13.1C378.6,253.8,371.1,250.4,363.2,247.7 M362.2,247.3c8,2.7,15.6,6.1,22.9,10.2l1.6,0.9
		c16.3,10.8-6.2,17.2-16.7,19.4c-58.9,12.7-147.7-5.7-131.9-27.4c11.7-16.1,78.2-20.9,85.9-10.2c-8.5-0.4-17.2,0.1-26,1.2
		c2.1-0.5,2.1-0.5,2.7-1.5c-6.5-6.2-35.8,0.4-35.2,7.9c1.4,16.5,87.7,21.7,99.3,6C367,250.8,364,248.6,362.2,247.3"/>
</g>
<g>
	<radialGradient id="SVGID_16_" cx="460" cy="231.5" r="455.195" gradientUnits="userSpaceOnUse">
		<stop  offset="0" style="stop-color:#462623"/>
		<stop  offset="0.2415" style="stop-color:#CB9B50"/>
		<stop  offset="0.4415" style="stop-color:#F2E27B"/>
		<stop  offset="0.5" style="stop-color:#F5F2C0"/>
		<stop  offset="0.5585" style="stop-color:#F2E27B"/>
		<stop  offset="0.7732" style="stop-color:#CB9B50"/>
		<stop  offset="1" style="stop-color:#462623"/>
	</radialGradient>
	<path class="st16" d="M264.4,585.6c0.3,0.1,0.6,0.1,0.8,0.2c-0.1,0-0.3,0-0.4-0.1C264.7,585.7,264.6,585.7,264.4,585.6z"/>
	<radialGradient id="SVGID_17_" cx="460" cy="231.5" r="455.195" gradientUnits="userSpaceOnUse">
		<stop  offset="0" style="stop-color:#462623"/>
		<stop  offset="0.2415" style="stop-color:#CB9B50"/>
		<stop  offset="0.4415" style="stop-color:#F2E27B"/>
		<stop  offset="0.5" style="stop-color:#F5F2C0"/>
		<stop  offset="0.5585" style="stop-color:#F2E27B"/>
		<stop  offset="0.7732" style="stop-color:#CB9B50"/>
		<stop  offset="1" style="stop-color:#462623"/>
	</radialGradient>
	<path class="st17" d="M270.9,586.8c1.6,0.2,2.7,0.4,3.6,0.5C273.3,587.1,272.4,587,270.9,586.8z"/>
	<radialGradient id="SVGID_18_" cx="460" cy="231.5" r="455.195" gradientUnits="userSpaceOnUse">
		<stop  offset="0" style="stop-color:#462623"/>
		<stop  offset="0.2415" style="stop-color:#CB9B50"/>
		<stop  offset="0.4415" style="stop-color:#F2E27B"/>
		<stop  offset="0.5" style="stop-color:#F5F2C0"/>
		<stop  offset="0.5585" style="stop-color:#F2E27B"/>
		<stop  offset="0.7732" style="stop-color:#CB9B50"/>
		<stop  offset="1" style="stop-color:#462623"/>
	</radialGradient>
	<path class="st18" d="M279.2,587.8c1.9,0.2,3.2,0.3,4.1,0.4C281.8,588.1,281,588,279.2,587.8z"/>
	<radialGradient id="SVGID_19_" cx="460" cy="231.5" r="455.195" gradientUnits="userSpaceOnUse">
		<stop  offset="0" style="stop-color:#462623"/>
		<stop  offset="0.2415" style="stop-color:#CB9B50"/>
		<stop  offset="0.4415" style="stop-color:#F2E27B"/>
		<stop  offset="0.5" style="stop-color:#F5F2C0"/>
		<stop  offset="0.5585" style="stop-color:#F2E27B"/>
		<stop  offset="0.7732" style="stop-color:#CB9B50"/>
		<stop  offset="1" style="stop-color:#462623"/>
	</radialGradient>
	<path class="st19" d="M287.3,588.5c1.7,0.1,2.8,0.1,3.7,0.2C289.6,588.6,288.9,588.6,287.3,588.5z"/>
	<radialGradient id="SVGID_20_" cx="297.175" cy="588.774" r="1.5026" gradientUnits="userSpaceOnUse">
		<stop  offset="0" style="stop-color:#462623"/>
		<stop  offset="0.2415" style="stop-color:#CB9B50"/>
		<stop  offset="0.4415" style="stop-color:#F2E27B"/>
		<stop  offset="0.5" style="stop-color:#F5F2C0"/>
		<stop  offset="0.5585" style="stop-color:#F2E27B"/>
		<stop  offset="0.7732" style="stop-color:#CB9B50"/>
		<stop  offset="1" style="stop-color:#462623"/>
	</radialGradient>
	<path class="st20" d="M295,588.8c2.1,0,3.3,0,4.3,0C297.4,588.8,296.8,588.8,295,588.8z"/>
	<radialGradient id="SVGID_21_" cx="303.995" cy="588.66" r="0.5484" gradientUnits="userSpaceOnUse">
		<stop  offset="0" style="stop-color:#462623"/>
		<stop  offset="0.2415" style="stop-color:#CB9B50"/>
		<stop  offset="0.4415" style="stop-color:#F2E27B"/>
		<stop  offset="0.5" style="stop-color:#F5F2C0"/>
		<stop  offset="0.5585" style="stop-color:#F2E27B"/>
		<stop  offset="0.7732" style="stop-color:#CB9B50"/>
		<stop  offset="1" style="stop-color:#462623"/>
	</radialGradient>
	<path class="st21" d="M304.8,588.6c-0.2,0-0.4,0-0.6,0l-1,0C303.7,588.7,304.2,588.6,304.8,588.6z"/>
	<radialGradient id="SVGID_22_" cx="460" cy="231.5" r="455.195" gradientUnits="userSpaceOnUse">
		<stop  offset="0" style="stop-color:#462623"/>
		<stop  offset="0.2415" style="stop-color:#CB9B50"/>
		<stop  offset="0.4415" style="stop-color:#F2E27B"/>
		<stop  offset="0.5" style="stop-color:#F5F2C0"/>
		<stop  offset="0.5585" style="stop-color:#F2E27B"/>
		<stop  offset="0.7732" style="stop-color:#CB9B50"/>
		<stop  offset="1" style="stop-color:#462623"/>
	</radialGradient>
	<path class="st22" d="M323.3,576c-8,2.4-16.1,4.2-24.3,5.3c8-1,15.8-2.7,23.6-5c14.3,2.8,9.2,6.7,8.1,7.5
		c-1.9,1.2-6.5,3.2-17.6,4.3c19.1-1.9,22.4-6.1,19.5-8.7C330.1,577.1,323.4,576,323.3,576z M306.8,588.5c2.2-0.1,4.3-0.3,6.2-0.5
		c-2.3,0.2-4.8,0.4-7.7,0.6C305.8,588.6,306.3,588.6,306.8,588.5z M302.5,588.7c-1,0-1.8,0-2.5,0
		C300.8,588.8,301.4,588.8,302.5,588.7z M294.2,588.7c-1,0-1.8,0-2.4-0.1C292.7,588.7,293.3,588.7,294.2,588.7z M286.4,588.4
		c-1.1-0.1-1.9-0.1-2.6-0.2C284.7,588.3,285.4,588.4,286.4,588.4z M278.8,587.8c-1.3-0.1-2.3-0.3-3.1-0.4
		C276.6,587.5,277.4,587.6,278.8,587.8z M270.3,586.7c-1.3-0.2-3-0.5-4.5-0.8C267.6,586.3,268.3,586.4,270.3,586.7z M303.2,588.7
		l1,0c0.2,0,0.4,0,0.6,0C304.2,588.6,303.7,588.7,303.2,588.7z M299.3,588.8c-0.9,0-2.1,0-4.3,0
		C296.8,588.8,297.4,588.8,299.3,588.8z M291,588.7c-0.9,0-2-0.1-3.7-0.2C288.9,588.6,289.6,588.6,291,588.7z M283.3,588.2
		c-0.9-0.1-2.1-0.2-4.1-0.4C281,588,281.8,588.1,283.3,588.2z M274.5,587.3c-0.9-0.1-2-0.3-3.6-0.5
		C272.4,587,273.3,587.1,274.5,587.3z M264.9,585.7c0.1,0,0.3,0,0.4,0.1c-0.3,0-0.5-0.1-0.8-0.2
		C264.6,585.7,264.7,585.7,264.9,585.7z"/>
	<g>
		<radialGradient id="SVGID_23_" cx="460" cy="231.5" r="455.195" gradientUnits="userSpaceOnUse">
			<stop  offset="0" style="stop-color:#462623"/>
			<stop  offset="0.2415" style="stop-color:#CB9B50"/>
			<stop  offset="0.4415" style="stop-color:#F2E27B"/>
			<stop  offset="0.5" style="stop-color:#F5F2C0"/>
			<stop  offset="0.5585" style="stop-color:#F2E27B"/>
			<stop  offset="0.7732" style="stop-color:#CB9B50"/>
			<stop  offset="1" style="stop-color:#462623"/>
		</radialGradient>
		<path class="st23" d="M174,538.5c0.2,0.1,0.3,0.3,0.5,0.5C174.3,538.8,174.2,538.7,174,538.5C174,538.5,174,538.5,174,538.5z"/>
		<radialGradient id="SVGID_24_" cx="460" cy="231.5" r="455.195" gradientUnits="userSpaceOnUse">
			<stop  offset="0" style="stop-color:#462623"/>
			<stop  offset="0.2415" style="stop-color:#CB9B50"/>
			<stop  offset="0.4415" style="stop-color:#F2E27B"/>
			<stop  offset="0.5" style="stop-color:#F5F2C0"/>
			<stop  offset="0.5585" style="stop-color:#F2E27B"/>
			<stop  offset="0.7732" style="stop-color:#CB9B50"/>
			<stop  offset="1" style="stop-color:#462623"/>
		</radialGradient>
		<path class="st24" d="M174.5,538.9c0.4,0.3,0.8,0.7,1.2,1.1C175.2,539.6,174.8,539.3,174.5,538.9z"/>
		<radialGradient id="SVGID_25_" cx="460" cy="231.5" r="455.195" gradientUnits="userSpaceOnUse">
			<stop  offset="0" style="stop-color:#462623"/>
			<stop  offset="0.2415" style="stop-color:#CB9B50"/>
			<stop  offset="0.4415" style="stop-color:#F2E27B"/>
			<stop  offset="0.5" style="stop-color:#F5F2C0"/>
			<stop  offset="0.5585" style="stop-color:#F2E27B"/>
			<stop  offset="0.7732" style="stop-color:#CB9B50"/>
			<stop  offset="1" style="stop-color:#462623"/>
		</radialGradient>
		<path class="st25" d="M178.1,542.3c0.7,0.6,1.3,1.1,1.7,1.5C179.1,543.3,178.7,542.9,178.1,542.3z"/>
		<radialGradient id="SVGID_26_" cx="460" cy="231.5" r="455.195" gradientUnits="userSpaceOnUse">
			<stop  offset="0" style="stop-color:#462623"/>
			<stop  offset="0.2415" style="stop-color:#CB9B50"/>
			<stop  offset="0.4415" style="stop-color:#F2E27B"/>
			<stop  offset="0.5" style="stop-color:#F5F2C0"/>
			<stop  offset="0.5585" style="stop-color:#F2E27B"/>
			<stop  offset="0.7732" style="stop-color:#CB9B50"/>
			<stop  offset="1" style="stop-color:#462623"/>
		</radialGradient>
		<path class="st26" d="M183.7,547.3c0.4,0.3,0.7,0.6,1,0.8C184.4,547.8,184.1,547.6,183.7,547.3z"/>
		<radialGradient id="SVGID_27_" cx="460" cy="231.5" r="455.195" gradientUnits="userSpaceOnUse">
			<stop  offset="0" style="stop-color:#462623"/>
			<stop  offset="0.2415" style="stop-color:#CB9B50"/>
			<stop  offset="0.4415" style="stop-color:#F2E27B"/>
			<stop  offset="0.5" style="stop-color:#F5F2C0"/>
			<stop  offset="0.5585" style="stop-color:#F2E27B"/>
			<stop  offset="0.7732" style="stop-color:#CB9B50"/>
			<stop  offset="1" style="stop-color:#462623"/>
		</radialGradient>
		<path class="st27" d="M189.6,552c0.3,0.2,0.6,0.4,0.8,0.6C190.1,552.4,189.9,552.2,189.6,552z"/>
		<radialGradient id="SVGID_28_" cx="460" cy="231.5" r="455.195" gradientUnits="userSpaceOnUse">
			<stop  offset="0" style="stop-color:#462623"/>
			<stop  offset="0.2415" style="stop-color:#CB9B50"/>
			<stop  offset="0.4415" style="stop-color:#F2E27B"/>
			<stop  offset="0.5" style="stop-color:#F5F2C0"/>
			<stop  offset="0.5585" style="stop-color:#F2E27B"/>
			<stop  offset="0.7732" style="stop-color:#CB9B50"/>
			<stop  offset="1" style="stop-color:#462623"/>
		</radialGradient>
		<path class="st28" d="M199.9,559.4c-1.5-1-3.5-2.4-4.9-3.4c1.3,0.9,2.9,2,4.3,3c0.1,0,0.1,0.1,0.2,0.1
			C199.6,559.2,199.8,559.3,199.9,559.4z"/>
		<radialGradient id="SVGID_29_" cx="460" cy="231.5" r="455.195" gradientUnits="userSpaceOnUse">
			<stop  offset="0" style="stop-color:#462623"/>
			<stop  offset="0.2415" style="stop-color:#CB9B50"/>
			<stop  offset="0.4415" style="stop-color:#F2E27B"/>
			<stop  offset="0.5" style="stop-color:#F5F2C0"/>
			<stop  offset="0.5585" style="stop-color:#F2E27B"/>
			<stop  offset="0.7732" style="stop-color:#CB9B50"/>
			<stop  offset="1" style="stop-color:#462623"/>
		</radialGradient>
		<path class="st29" d="M385.9,541.1c0,0-0.1,0.1-0.1,0.1c-60.6-18.5-173.1,0.9-158.3,27.3c2.6,4.7,10.8,11.5,34.4,16.6
			c1,0.2,1.8,0.3,2.5,0.5c0,0,0.1,0,0.1,0c0.3,0.1,0.6,0.1,0.8,0.2c0.2,0,0.4,0.1,0.5,0.1c1.5,0.3,3.1,0.5,4.5,0.8
			c0.2,0,0.4,0.1,0.6,0.1c1.6,0.2,2.7,0.4,3.6,0.5c0.4,0.1,0.8,0.1,1.1,0.1c0.8,0.1,1.8,0.2,3.1,0.4c0.1,0,0.3,0,0.5,0.1
			c1.9,0.2,3.2,0.3,4.1,0.4c0.1,0,0.3,0,0.4,0c0,0,0,0,0,0c0.7,0,1.5,0.1,2.6,0.2c0.3,0,0.6,0,1,0.1c1.7,0.1,2.8,0.1,3.7,0.2h0.1
			c0.2,0,0.4,0,0.6,0c0.6,0,1.4,0,2.4,0.1c0.3,0,0.6,0,0.9,0c2.1,0,3.3,0,4.3,0c0.2,0,0.5,0,0.7,0c0.7,0,1.5,0,2.5,0
			c0.1,0,0.2,0,0.3,0c0.2,0,0.3,0,0.5,0c0.5,0,1,0,1.6-0.1c0.2,0,0.3,0,0.5,0c2.9-0.2,5.4-0.3,7.7-0.6c11.1-1.1,15.7-3.1,17.6-4.3
			c1.2-0.8,6.3-4.6-8.1-7.5c-7.7,2.3-15.6,4-23.6,5c0,0,0,0,0.1,0c0,0,0,0,0.1,0.1c0.2,0.2-0.2,0.5-1,0.6c-0.9,0.1-2,0-2.4-0.2
			c-0.1,0-0.1-0.1-0.1-0.1c0,0-0.1-0.1-0.1-0.1c0-0.1,0.1-0.2,0.3-0.3c-11-2.5-8.7-7.2-2.8-10.7c12.2-7.4,43-12.7,68.6-11.9
			c0.1,0,0.2-0.1,0.2-0.1c17,5.5,14.7,10.7,8.7,14.3c0.9-0.5,1.7-1.1,2.4-1.6c-0.9,0.7-2.1,1.5-3.5,2.2c-0.3,0.2-0.7,0.4-1.1,0.6
			c-0.1,0-0.2,0.1-0.3,0.1c1.4-0.6,3.1-1.4,4.4-2c0.2-0.1,0.3-0.1,0.5-0.2c0.2-0.1,0.3-0.1,0.4-0.2c0,0,0,0,0.1,0
			c0.1-0.1,0.3-0.1,0.4-0.2c0.1,0,0.1-0.1,0.2-0.1c0.6-0.3,1.1-0.5,1.5-0.8c0.1,0,0.2-0.1,0.3-0.1c0.2-0.1,0.4-0.2,0.6-0.3
			c0.1-0.1,0.2-0.1,0.3-0.2c0,0,0.1,0,0.1,0c0.1-0.1,0.3-0.2,0.4-0.2c0,0,0,0,0,0c0.2-0.1,0.3-0.2,0.5-0.3c0,0,0,0,0,0
			c0.1,0,0.2-0.1,0.3-0.2c0.1,0,0.2-0.1,0.3-0.1c0.1-0.1,0.3-0.1,0.4-0.2c0.1-0.1,0.3-0.1,0.4-0.2c0.1-0.1,0.3-0.1,0.4-0.2
			c0.3-0.2,0.6-0.3,0.8-0.4c0.1-0.1,0.2-0.1,0.3-0.2c0.2-0.1,0.4-0.2,0.6-0.3c0,0,0,0,0,0c0.1-0.1,0.2-0.1,0.3-0.2c0,0,0,0,0,0
			c0.2-0.1,0.5-0.3,0.7-0.4c0.1-0.1,0.2-0.1,0.3-0.2c0.7-0.4,1.5-0.8,2.8-1.5c0.2-0.1,0.4-0.3,0.7-0.4c0.1-0.1,0.3-0.2,0.4-0.3
			c0.1-0.1,0.3-0.2,0.4-0.2c0.8-0.4,1.4-0.8,1.9-1.1c0,0,0.1,0,0.1-0.1c0.1-0.1,0.2-0.1,0.3-0.2c0.3-0.2,0.6-0.4,1-0.6
			c0.1-0.1,0.2-0.1,0.3-0.2c0.3-0.2,0.6-0.4,1-0.6c0.2-0.1,0.4-0.2,0.6-0.4c0.1-0.1,0.2-0.1,0.3-0.2c0.2-0.1,0.5-0.3,0.8-0.5
			l2.2-1.5c0.2-0.1,0.4-0.3,0.6-0.4c0.8-0.6,1.4-1.1,1.9-1.7c0.3-0.3,0.5-0.5,0.7-0.8c-0.2,0.3-0.4,0.5-0.7,0.8
			c-0.5,0.5-1.2,1.1-1.9,1.7c-0.1,0.1-0.3,0.2-0.5,0.3l0.5-0.3C399.3,556.4,408.9,549,385.9,541.1z M374.7,569.5
			c-0.3,0.4-0.7,0.8-1.1,1.2C374,570.3,374.4,569.9,374.7,569.5c0.3-0.4,0.5-0.8,0.7-1.1C375.2,568.7,375,569.1,374.7,569.5z
			 M375.4,568.3c0.7-1.5,0.3-2.9-0.8-4.2C375.7,565.4,376,566.8,375.4,568.3z M395.5,546.6c0.9,0.6,1.8,1.3,2.5,2
			C397.3,547.9,396.4,547.2,395.5,546.6z"/>
		<radialGradient id="SVGID_30_" cx="460" cy="231.5" r="455.195" gradientUnits="userSpaceOnUse">
			<stop  offset="0" style="stop-color:#462623"/>
			<stop  offset="0.2415" style="stop-color:#CB9B50"/>
			<stop  offset="0.4415" style="stop-color:#F2E27B"/>
			<stop  offset="0.5" style="stop-color:#F5F2C0"/>
			<stop  offset="0.5585" style="stop-color:#F2E27B"/>
			<stop  offset="0.7732" style="stop-color:#CB9B50"/>
			<stop  offset="1" style="stop-color:#462623"/>
		</radialGradient>
		<path class="st30" d="M373.3,571.8c0.1-0.1,0.3-0.1,0.4-0.2c0,0-0.1,0-0.1,0.1c-0.1,0-0.1,0-0.2,0.1
			C373.4,571.7,373.4,571.8,373.3,571.8C373.3,571.8,373.3,571.8,373.3,571.8z"/>
		<radialGradient id="SVGID_31_" cx="460" cy="231.5" r="455.195" gradientUnits="userSpaceOnUse">
			<stop  offset="0" style="stop-color:#462623"/>
			<stop  offset="0.2415" style="stop-color:#CB9B50"/>
			<stop  offset="0.4415" style="stop-color:#F2E27B"/>
			<stop  offset="0.5" style="stop-color:#F5F2C0"/>
			<stop  offset="0.5585" style="stop-color:#F2E27B"/>
			<stop  offset="0.7732" style="stop-color:#CB9B50"/>
			<stop  offset="1" style="stop-color:#462623"/>
		</radialGradient>
		<path class="st31" d="M375.5,570.7c0.1,0,0.2-0.1,0.3-0.1c0,0-0.1,0-0.1,0.1C375.6,570.7,375.6,570.7,375.5,570.7
			c-0.4,0.2-0.8,0.4-1.2,0.6c-0.1,0.1-0.2,0.1-0.3,0.2C374.6,571.2,375.1,570.9,375.5,570.7z"/>
		<radialGradient id="SVGID_32_" cx="460" cy="231.5" r="455.195" gradientUnits="userSpaceOnUse">
			<stop  offset="0" style="stop-color:#462623"/>
			<stop  offset="0.2415" style="stop-color:#CB9B50"/>
			<stop  offset="0.4415" style="stop-color:#F2E27B"/>
			<stop  offset="0.5" style="stop-color:#F5F2C0"/>
			<stop  offset="0.5585" style="stop-color:#F2E27B"/>
			<stop  offset="0.7732" style="stop-color:#CB9B50"/>
			<stop  offset="1" style="stop-color:#462623"/>
		</radialGradient>
		<path class="st32" d="M380.9,568c0.2-0.1,0.4-0.2,0.6-0.3c0,0-0.1,0-0.1,0.1c-0.1,0-0.2,0.1-0.3,0.2C381,567.9,381,568,380.9,568z
			"/>
		<radialGradient id="SVGID_33_" cx="460" cy="231.5" r="455.195" gradientUnits="userSpaceOnUse">
			<stop  offset="0" style="stop-color:#462623"/>
			<stop  offset="0.2415" style="stop-color:#CB9B50"/>
			<stop  offset="0.4415" style="stop-color:#F2E27B"/>
			<stop  offset="0.5" style="stop-color:#F5F2C0"/>
			<stop  offset="0.5585" style="stop-color:#F2E27B"/>
			<stop  offset="0.7732" style="stop-color:#CB9B50"/>
			<stop  offset="1" style="stop-color:#462623"/>
		</radialGradient>
		<path class="st33" d="M381.5,567.6c0.1-0.1,0.2-0.1,0.3-0.2c0,0-0.1,0.1-0.1,0.1C381.6,567.6,381.6,567.6,381.5,567.6z"/>
		<radialGradient id="SVGID_34_" cx="460" cy="231.5" r="455.195" gradientUnits="userSpaceOnUse">
			<stop  offset="0" style="stop-color:#462623"/>
			<stop  offset="0.2415" style="stop-color:#CB9B50"/>
			<stop  offset="0.4415" style="stop-color:#F2E27B"/>
			<stop  offset="0.5" style="stop-color:#F5F2C0"/>
			<stop  offset="0.5585" style="stop-color:#F2E27B"/>
			<stop  offset="0.7732" style="stop-color:#CB9B50"/>
			<stop  offset="1" style="stop-color:#462623"/>
		</radialGradient>
		<path class="st34" d="M381.8,567.5c0.2-0.1,0.5-0.3,0.7-0.4c-0.2,0.1-0.4,0.2-0.5,0.3C381.9,567.5,381.8,567.5,381.8,567.5z"/>
		<radialGradient id="SVGID_35_" cx="460" cy="231.5" r="455.195" gradientUnits="userSpaceOnUse">
			<stop  offset="0" style="stop-color:#462623"/>
			<stop  offset="0.2415" style="stop-color:#CB9B50"/>
			<stop  offset="0.4415" style="stop-color:#F2E27B"/>
			<stop  offset="0.5" style="stop-color:#F5F2C0"/>
			<stop  offset="0.5585" style="stop-color:#F2E27B"/>
			<stop  offset="0.7732" style="stop-color:#CB9B50"/>
			<stop  offset="1" style="stop-color:#462623"/>
		</radialGradient>
		<path class="st35" d="M387.1,564.5c0.8-0.4,1.4-0.8,1.9-1.1C388.3,563.8,387.8,564.1,387.1,564.5z"/>
		<radialGradient id="SVGID_36_" cx="460" cy="231.5" r="455.195" gradientUnits="userSpaceOnUse">
			<stop  offset="0" style="stop-color:#462623"/>
			<stop  offset="0.2415" style="stop-color:#CB9B50"/>
			<stop  offset="0.4415" style="stop-color:#F2E27B"/>
			<stop  offset="0.5" style="stop-color:#F5F2C0"/>
			<stop  offset="0.5585" style="stop-color:#F2E27B"/>
			<stop  offset="0.7732" style="stop-color:#CB9B50"/>
			<stop  offset="1" style="stop-color:#462623"/>
		</radialGradient>
		<path class="st36" d="M393.3,560.7l2.2-1.5c-0.1,0.1-0.2,0.1-0.3,0.2L393.3,560.7z"/>
		<radialGradient id="SVGID_37_" cx="460" cy="231.5" r="455.195" gradientUnits="userSpaceOnUse">
			<stop  offset="0" style="stop-color:#462623"/>
			<stop  offset="0.2415" style="stop-color:#CB9B50"/>
			<stop  offset="0.4415" style="stop-color:#F2E27B"/>
			<stop  offset="0.5" style="stop-color:#F5F2C0"/>
			<stop  offset="0.5585" style="stop-color:#F2E27B"/>
			<stop  offset="0.7732" style="stop-color:#CB9B50"/>
			<stop  offset="1" style="stop-color:#462623"/>
		</radialGradient>
		<path class="st37" d="M395.5,559.2c0.2-0.1,0.4-0.3,0.6-0.4c-0.1,0.1-0.3,0.2-0.5,0.3L395.5,559.2z"/>
		<radialGradient id="SVGID_38_" cx="460" cy="231.5" r="455.195" gradientUnits="userSpaceOnUse">
			<stop  offset="0" style="stop-color:#462623"/>
			<stop  offset="0.2415" style="stop-color:#CB9B50"/>
			<stop  offset="0.4415" style="stop-color:#F2E27B"/>
			<stop  offset="0.5" style="stop-color:#F5F2C0"/>
			<stop  offset="0.5585" style="stop-color:#F2E27B"/>
			<stop  offset="0.7732" style="stop-color:#CB9B50"/>
			<stop  offset="1" style="stop-color:#462623"/>
		</radialGradient>
		<path class="st38" d="M396.1,558.8c0.8-0.6,1.4-1.1,1.9-1.7C397.5,557.7,396.9,558.2,396.1,558.8z"/>
		<radialGradient id="SVGID_39_" cx="460" cy="231.5" r="455.195" gradientUnits="userSpaceOnUse">
			<stop  offset="0" style="stop-color:#462623"/>
			<stop  offset="0.2415" style="stop-color:#CB9B50"/>
			<stop  offset="0.4415" style="stop-color:#F2E27B"/>
			<stop  offset="0.5" style="stop-color:#F5F2C0"/>
			<stop  offset="0.5585" style="stop-color:#F2E27B"/>
			<stop  offset="0.7732" style="stop-color:#CB9B50"/>
			<stop  offset="1" style="stop-color:#462623"/>
		</radialGradient>
		<path class="st39" d="M398,557.1c0.3-0.3,0.5-0.5,0.7-0.8C398.5,556.6,398.3,556.8,398,557.1z"/>
	</g>
	<radialGradient id="SVGID_40_" cx="460" cy="231.5" r="455.195" gradientUnits="userSpaceOnUse">
		<stop  offset="0" style="stop-color:#462623"/>
		<stop  offset="0.2415" style="stop-color:#CB9B50"/>
		<stop  offset="0.4415" style="stop-color:#F2E27B"/>
		<stop  offset="0.5" style="stop-color:#F5F2C0"/>
		<stop  offset="0.5585" style="stop-color:#F2E27B"/>
		<stop  offset="0.7732" style="stop-color:#CB9B50"/>
		<stop  offset="1" style="stop-color:#462623"/>
	</radialGradient>
	<path class="st40" d="M174,538.5C174,538.5,174,538.5,174,538.5c0.1,0.2,0.2,0.2,0.3,0.3C174.2,538.6,174.1,538.5,174,538.5z
		 M178.3,542.5c0.4,0.4,0.7,0.7,1.1,1C179.1,543.3,178.7,542.9,178.3,542.5z M183.7,547.3c0.3,0.3,0.5,0.5,0.8,0.6
		C184.2,547.7,184,547.5,183.7,547.3z M199.5,559.1c-0.1,0-0.1-0.1-0.2-0.1c-0.8-0.6-1.7-1.1-2.5-1.7c1.1,0.7,2.2,1.5,3.1,2.1
		C199.8,559.3,199.6,559.2,199.5,559.1z M375.5,570.7c0.1,0,0.1,0,0.2-0.1c0,0,0.1-0.1,0.1-0.1C375.7,570.6,375.6,570.7,375.5,570.7
		z M373.8,571.6c-0.1,0.1-0.3,0.1-0.4,0.2c0.1,0,0.1,0,0.2-0.1c0.1,0,0.1-0.1,0.2-0.1c0.2-0.1,0.5-0.2,0.7-0.3
		c0.4-0.2,0.8-0.4,1.2-0.6c0,0,0,0,0,0c-0.4,0.2-0.9,0.5-1.5,0.8C373.9,571.5,373.8,571.5,373.8,571.6z M381.8,567.5
		C381.8,567.5,381.8,567.5,381.8,567.5c-0.1,0.1-0.2,0.1-0.3,0.2c0,0,0.1,0,0.1-0.1c0.1-0.1,0.2-0.1,0.3-0.1
		c0.2-0.1,0.4-0.2,0.5-0.3C382.3,567.2,382,567.3,381.8,567.5z M380.9,568c-0.1,0.1-0.2,0.1-0.3,0.2c0.2-0.1,0.4-0.2,0.6-0.3
		c0.1-0.1,0.2-0.1,0.3-0.2c0,0,0.1,0,0.1-0.1c0,0,0,0,0,0C381.3,567.8,381.1,567.9,380.9,568z M387.1,564.5c0.8-0.4,1.3-0.7,1.9-1.1
		C388.4,563.7,387.8,564.1,387.1,564.5z M393.3,560.7l1.9-1.3c0.1-0.1,0.2-0.1,0.3-0.2L393.3,560.7z M180.1,544.2
		c1.1,1,1.5,1.3,2.5,2.2C181.5,545.4,180.7,544.7,180.1,544.2z M192.7,554.3c0.7,0.5,1.2,0.9,1.8,1.3
		C193.8,555.1,193.2,554.7,192.7,554.3z M367.5,574.4c0.2-0.1,0.3-0.1,0.5-0.2c0.1,0,0.2-0.1,0.3-0.1
		C368,574.2,367.7,574.3,367.5,574.4z M377.9,569.5C377.9,569.5,377.9,569.5,377.9,569.5C377.9,569.5,377.9,569.5,377.9,569.5
		C377.9,569.5,377.9,569.5,377.9,569.5z M376.4,570.3c0.2-0.1,0.3-0.1,0.4-0.2c0,0-0.1,0-0.1,0C376.7,570.2,376.5,570.2,376.4,570.3
		z M378.8,569c0,0-0.1,0-0.1,0.1c0.2-0.1,0.4-0.2,0.5-0.3C379.1,568.9,379,569,378.8,569z M385.5,565.4c0.2-0.1,0.4-0.3,0.7-0.4
		C386,565.1,385.7,565.3,385.5,565.4z M391.6,561.7c-0.3,0.2-0.7,0.4-1,0.6c-0.1,0.1-0.2,0.1-0.3,0.2c0.8-0.5,1.3-0.8,2.1-1.4
		c-0.1,0.1-0.2,0.2-0.3,0.2C392,561.5,391.8,561.6,391.6,561.7z M398.7,556.3c-0.2,0.3-0.5,0.5-0.7,0.8
		C398.3,556.8,398.5,556.6,398.7,556.3z M398,557.1c-0.5,0.5-1.2,1.1-1.9,1.7C396.9,558.2,397.5,557.7,398,557.1z M395.6,559.1
		c0.2-0.1,0.3-0.2,0.5-0.3c-0.2,0.1-0.4,0.3-0.6,0.4L395.6,559.1z"/>
	<g>
		<radialGradient id="SVGID_41_" cx="460" cy="231.5" r="455.195" gradientUnits="userSpaceOnUse">
			<stop  offset="0" style="stop-color:#462623"/>
			<stop  offset="0.2415" style="stop-color:#CB9B50"/>
			<stop  offset="0.4415" style="stop-color:#F2E27B"/>
			<stop  offset="0.5" style="stop-color:#F5F2C0"/>
			<stop  offset="0.5585" style="stop-color:#F2E27B"/>
			<stop  offset="0.7732" style="stop-color:#CB9B50"/>
			<stop  offset="1" style="stop-color:#462623"/>
		</radialGradient>
		<path class="st41" d="M132.8,476.6c0.5,1.2,0.8,2,1.1,2.7C133.4,478.3,133.2,477.7,132.8,476.6z"/>
		<radialGradient id="SVGID_42_" cx="460" cy="231.5" r="455.195" gradientUnits="userSpaceOnUse">
			<stop  offset="0" style="stop-color:#462623"/>
			<stop  offset="0.2415" style="stop-color:#CB9B50"/>
			<stop  offset="0.4415" style="stop-color:#F2E27B"/>
			<stop  offset="0.5" style="stop-color:#F5F2C0"/>
			<stop  offset="0.5585" style="stop-color:#F2E27B"/>
			<stop  offset="0.7732" style="stop-color:#CB9B50"/>
			<stop  offset="1" style="stop-color:#462623"/>
		</radialGradient>
		<path class="st42" d="M135.5,483.1c0.1,0.3,0.2,0.5,0.3,0.7C135.7,483.6,135.6,483.4,135.5,483.1z"/>
		<radialGradient id="SVGID_43_" cx="460" cy="231.5" r="455.195" gradientUnits="userSpaceOnUse">
			<stop  offset="0" style="stop-color:#462623"/>
			<stop  offset="0.2415" style="stop-color:#CB9B50"/>
			<stop  offset="0.4415" style="stop-color:#F2E27B"/>
			<stop  offset="0.5" style="stop-color:#F5F2C0"/>
			<stop  offset="0.5585" style="stop-color:#F2E27B"/>
			<stop  offset="0.7732" style="stop-color:#CB9B50"/>
			<stop  offset="1" style="stop-color:#462623"/>
		</radialGradient>
		<path class="st43" d="M136.1,484.5c0.2,0.5,0.4,1,0.6,1.3C136.5,485.3,136.3,484.9,136.1,484.5z"/>
		<radialGradient id="SVGID_44_" cx="460" cy="231.5" r="455.195" gradientUnits="userSpaceOnUse">
			<stop  offset="0" style="stop-color:#462623"/>
			<stop  offset="0.2415" style="stop-color:#CB9B50"/>
			<stop  offset="0.4415" style="stop-color:#F2E27B"/>
			<stop  offset="0.5" style="stop-color:#F5F2C0"/>
			<stop  offset="0.5585" style="stop-color:#F2E27B"/>
			<stop  offset="0.7732" style="stop-color:#CB9B50"/>
			<stop  offset="1" style="stop-color:#462623"/>
		</radialGradient>
		<path class="st44" d="M138.7,490c0.5,0.9,0.8,1.6,1.1,2.2C139.4,491.4,139.1,490.9,138.7,490z"/>
		<radialGradient id="SVGID_45_" cx="460" cy="231.5" r="455.195" gradientUnits="userSpaceOnUse">
			<stop  offset="0" style="stop-color:#462623"/>
			<stop  offset="0.2415" style="stop-color:#CB9B50"/>
			<stop  offset="0.4415" style="stop-color:#F2E27B"/>
			<stop  offset="0.5" style="stop-color:#F5F2C0"/>
			<stop  offset="0.5585" style="stop-color:#F2E27B"/>
			<stop  offset="0.7732" style="stop-color:#CB9B50"/>
			<stop  offset="1" style="stop-color:#462623"/>
		</radialGradient>
		<path class="st45" d="M143,498.1l-1.2-2.1l0.9,1.7l0.1,0.1C142.8,497.9,142.9,498,143,498.1z"/>
		<radialGradient id="SVGID_46_" cx="460" cy="231.5" r="455.195" gradientUnits="userSpaceOnUse">
			<stop  offset="0" style="stop-color:#462623"/>
			<stop  offset="0.2415" style="stop-color:#CB9B50"/>
			<stop  offset="0.4415" style="stop-color:#F2E27B"/>
			<stop  offset="0.5" style="stop-color:#F5F2C0"/>
			<stop  offset="0.5585" style="stop-color:#F2E27B"/>
			<stop  offset="0.7732" style="stop-color:#CB9B50"/>
			<stop  offset="1" style="stop-color:#462623"/>
		</radialGradient>
		<path class="st46" d="M432.8,482.8c0,0,0,0.1-0.1,0.1c-85.3-29.7-289.9-2.6-265,47.5c0.5,1,1.7,3.5,5.4,7.2
			c0.3,0.2,0.5,0.5,0.8,0.8c0.2,0.1,0.3,0.3,0.5,0.5c0.4,0.3,0.8,0.7,1.2,1.1c0.6,0.6,1.3,1.2,1.8,1.7c0.2,0.2,0.5,0.4,0.7,0.6
			c0.7,0.6,1.3,1.1,1.7,1.5c0.1,0.1,0.3,0.2,0.4,0.3c0.6,0.5,1.4,1.2,2.5,2.2c0.1,0.1,0.2,0.2,0.3,0.3c0.2,0.2,0.5,0.4,0.7,0.6
			c0.4,0.3,0.7,0.6,1,0.8c0.2,0.1,0.3,0.3,0.5,0.4c0.4,0.3,0.7,0.6,1,0.8c0.6,0.5,1.3,1,2.3,1.8c0.1,0.1,0.2,0.2,0.4,0.3
			c0.2,0.2,0.5,0.4,0.7,0.5c0.3,0.2,0.6,0.4,0.8,0.6c0.1,0,0.1,0.1,0.2,0.2c0.1,0,0.1,0.1,0.2,0.1c0.6,0.5,1.1,0.9,1.6,1.2
			c0.6,0.5,1.5,1.1,2.6,1.9c1.3,0.9,2.9,2,4.3,3c0.1,0,0.1,0.1,0.2,0.1c0.5,0.3,1,0.7,1.5,1c-34.4-24.6,7.2-46,60.3-55.4
			c46.5-8.3,114.7-9.5,154.9,4.1c0,0,0.1-0.1,0.1-0.1c7,2.8,23.3,9.5,15,19.2l0.7-0.8l0.6-0.7c1.1-1.3,1.4-1.7,2.5-3.1
			c0.1-0.1,0.1-0.2,0.2-0.2c0,0,0,0,0.1-0.1c0-0.1,0.1-0.1,0.1-0.1c0.3-0.3,0.5-0.7,0.9-1.1c0,0,0,0,0-0.1c0.1-0.1,0.1-0.2,0.2-0.3
			c0,0,0,0,0,0c0.1-0.1,0.2-0.2,0.3-0.3c0.1-0.1,0.2-0.2,0.3-0.3c0.2-0.3,0.4-0.5,0.5-0.7c0.2-0.3,0.4-0.5,0.6-0.8
			c0.4-0.5,0.7-0.9,1.2-1.6c0.1-0.1,0.1-0.2,0.2-0.2c0.1-0.1,0.2-0.2,0.2-0.3c0.1-0.1,0.2-0.3,0.3-0.5c0.3-0.4,0.7-0.9,1.1-1.4
			c0.1-0.1,0.2-0.2,0.3-0.3c0.1-0.1,0.2-0.3,0.3-0.4c0.1-0.2,0.2-0.3,0.3-0.4c0.6-0.9,1-1.5,1.4-2c0,0,0,0,0-0.1
			c0-0.1,0.1-0.1,0.1-0.2c0.5-0.7,1-1.6,2-2.9c0.2-0.3,0.4-0.7,0.7-1c0.1-0.2,0.2-0.4,0.4-0.6c0.1-0.2,0.2-0.3,0.3-0.5
			c0,0,0-0.1,0.1-0.1c0.3-0.5,0.6-0.9,0.9-1.4c0.1-0.3,0.3-0.5,0.4-0.7c0.2-0.4,0.5-0.7,0.7-1.1c0-0.1,0.1-0.2,0.2-0.3c0,0,0,0,0,0
			c0,0,0-0.1,0.1-0.1c0,0,0,0,0,0c0.1-0.2,0.2-0.3,0.3-0.5c-0.1,0.1-0.1,0.3-0.2,0.4c0-0.1,0.1-0.1,0.1-0.2l0.3-0.5
			C451.3,498.7,454.4,491.3,432.8,482.8z M447.6,492.8c2.2,2.3,3.4,5,2.6,8C451.1,497.8,449.8,495.1,447.6,492.8z"/>
		<radialGradient id="SVGID_47_" cx="460" cy="231.5" r="455.195" gradientUnits="userSpaceOnUse">
			<stop  offset="0" style="stop-color:#462623"/>
			<stop  offset="0.2415" style="stop-color:#CB9B50"/>
			<stop  offset="0.4415" style="stop-color:#F2E27B"/>
			<stop  offset="0.5" style="stop-color:#F5F2C0"/>
			<stop  offset="0.5585" style="stop-color:#F2E27B"/>
			<stop  offset="0.7732" style="stop-color:#CB9B50"/>
			<stop  offset="1" style="stop-color:#462623"/>
		</radialGradient>
		<path class="st47" d="M437.8,520c0.2-0.3,0.4-0.5,0.6-0.8C438.2,519.4,438,519.7,437.8,520z"/>
		<radialGradient id="SVGID_48_" cx="460" cy="231.5" r="455.195" gradientUnits="userSpaceOnUse">
			<stop  offset="0" style="stop-color:#462623"/>
			<stop  offset="0.2415" style="stop-color:#CB9B50"/>
			<stop  offset="0.4415" style="stop-color:#F2E27B"/>
			<stop  offset="0.5" style="stop-color:#F5F2C0"/>
			<stop  offset="0.5585" style="stop-color:#F2E27B"/>
			<stop  offset="0.7732" style="stop-color:#CB9B50"/>
			<stop  offset="1" style="stop-color:#462623"/>
		</radialGradient>
		<path class="st48" d="M443.6,512C443.6,512,443.6,512,443.6,512c0,0,0,0-0.1,0.1c0,0-0.1,0.1-0.1,0.2c-0.1,0.1-0.1,0.2-0.2,0.3
			c-0.3,0.4-0.5,0.8-0.9,1.2c-0.1,0.2-0.3,0.4-0.5,0.7c0.1-0.2,0.2-0.3,0.3-0.4C442.8,513.2,443.2,512.5,443.6,512z"/>
		<radialGradient id="SVGID_49_" cx="460" cy="231.5" r="455.195" gradientUnits="userSpaceOnUse">
			<stop  offset="0" style="stop-color:#462623"/>
			<stop  offset="0.2415" style="stop-color:#CB9B50"/>
			<stop  offset="0.4415" style="stop-color:#F2E27B"/>
			<stop  offset="0.5" style="stop-color:#F5F2C0"/>
			<stop  offset="0.5585" style="stop-color:#F2E27B"/>
			<stop  offset="0.7732" style="stop-color:#CB9B50"/>
			<stop  offset="1" style="stop-color:#462623"/>
		</radialGradient>
		<path class="st49" d="M449.3,503.1c0.1-0.2,0.2-0.3,0.3-0.5c-0.1,0.1-0.1,0.3-0.2,0.4C449.4,503,449.4,503,449.3,503.1z"/>
		<radialGradient id="SVGID_50_" cx="460" cy="231.5" r="455.195" gradientUnits="userSpaceOnUse">
			<stop  offset="0" style="stop-color:#462623"/>
			<stop  offset="0.2415" style="stop-color:#CB9B50"/>
			<stop  offset="0.4415" style="stop-color:#F2E27B"/>
			<stop  offset="0.5" style="stop-color:#F5F2C0"/>
			<stop  offset="0.5585" style="stop-color:#F2E27B"/>
			<stop  offset="0.7732" style="stop-color:#CB9B50"/>
			<stop  offset="1" style="stop-color:#462623"/>
		</radialGradient>
		<path class="st50" d="M450.3,500.8c0.8-3-0.4-5.7-2.6-8C449.8,495.1,451.1,497.8,450.3,500.8z"/>
	</g>
	<radialGradient id="SVGID_51_" cx="460" cy="231.5" r="455.195" gradientUnits="userSpaceOnUse">
		<stop  offset="0" style="stop-color:#462623"/>
		<stop  offset="0.2415" style="stop-color:#CB9B50"/>
		<stop  offset="0.4415" style="stop-color:#F2E27B"/>
		<stop  offset="0.5" style="stop-color:#F5F2C0"/>
		<stop  offset="0.5585" style="stop-color:#F2E27B"/>
		<stop  offset="0.7732" style="stop-color:#CB9B50"/>
		<stop  offset="1" style="stop-color:#462623"/>
	</radialGradient>
	<path class="st51" d="M132.9,477.1c0.3,0.8,0.5,1.4,0.9,2.3C133.6,478.8,133.3,478,132.9,477.1z M138.8,490.3
		c0.3,0.7,0.6,1.2,0.9,1.9C139.5,491.6,139.2,491,138.8,490.3z M142.8,497.8l-0.1-0.1l-0.9-1.7l1.2,2.1
		C142.9,498,142.8,497.9,142.8,497.8z M437.8,520c0.2-0.3,0.4-0.5,0.6-0.8C438.2,519.4,438,519.7,437.8,520z M442.2,514
		c0.1-0.1,0.1-0.2,0.2-0.2c0.3-0.4,0.5-0.8,0.9-1.2c0.1-0.1,0.1-0.2,0.2-0.3c0,0,0.1-0.1,0.1-0.2c0,0,0-0.1,0.1-0.1
		C443.2,512.5,442.8,513.2,442.2,514z M131.6,473.6c0.1,0.3,0.2,0.6,0.3,0.8C131.8,474.1,131.7,473.8,131.6,473.6z M137.7,488
		c0.2,0.4,0.4,0.8,0.6,1.3C138.1,488.7,137.9,488.3,137.7,488z M137.7,488c-0.2-0.4-0.3-0.7-0.5-1
		C137.4,487.3,137.5,487.6,137.7,488z M140.6,493.8c0.3,0.6,0.5,1,0.8,1.6C141.1,494.7,140.8,494.2,140.6,493.8z M436.7,521.3
		C436.7,521.3,436.7,521.3,436.7,521.3C436.7,521.3,436.7,521.3,436.7,521.3L436.7,521.3z M436.4,521.6
		C436.5,521.6,436.5,521.6,436.4,521.6C436.5,521.6,436.5,521.6,436.4,521.6C436.5,521.6,436.5,521.6,436.4,521.6z M436.4,521.6
		c-0.3,0.4-0.6,0.8-0.9,1.1C435.9,522.4,436.1,522,436.4,521.6z M440.3,516.6c-0.1,0.2-0.2,0.3-0.3,0.5c-0.1,0.1-0.2,0.2-0.2,0.3
		c0.6-0.8,1-1.3,1.6-2.2C440.9,515.7,440.6,516.2,440.3,516.6z M448.4,504.6c-0.1,0.2-0.3,0.5-0.4,0.7c-0.3,0.5-0.6,0.9-0.9,1.4
		c1-1.6,1.4-2.1,2-3.2C448.9,503.8,448.7,504.2,448.4,504.6z M447,506.9c0-0.1,0.1-0.2,0.1-0.2c0,0,0,0.1-0.1,0.1
		C447,506.8,447,506.9,447,506.9z M447.6,492.8c2.2,2.3,3.4,5,2.6,8C451.1,497.8,449.8,495.1,447.6,492.8z M449.4,503
		c0.1-0.1,0.1-0.3,0.2-0.4c-0.1,0.2-0.2,0.3-0.3,0.5C449.4,503,449.4,503,449.4,503z"/>
	<g>
		<radialGradient id="SVGID_52_" cx="120.56" cy="405.675" r="0.6544" gradientUnits="userSpaceOnUse">
			<stop  offset="0" style="stop-color:#462623"/>
			<stop  offset="0.2415" style="stop-color:#CB9B50"/>
			<stop  offset="0.4415" style="stop-color:#F2E27B"/>
			<stop  offset="0.5" style="stop-color:#F5F2C0"/>
			<stop  offset="0.5585" style="stop-color:#F2E27B"/>
			<stop  offset="0.7732" style="stop-color:#CB9B50"/>
			<stop  offset="1" style="stop-color:#462623"/>
		</radialGradient>
		<path class="st52" d="M120.6,404.8c0,0.1,0,0.2,0,0.3c0,0.1,0,0.2,0,0.3c0,0.2,0,0.3,0,0.4c0,0.1,0,0.2,0,0.3c0,0,0,0.1,0,0.1
			c0,0.1,0,0.3,0,0.4v-0.2c0-0.1,0-0.2,0-0.3C120.5,405.6,120.6,405.3,120.6,404.8z"/>
		<radialGradient id="SVGID_53_" cx="120.905" cy="398.825" r="0.2446" gradientUnits="userSpaceOnUse">
			<stop  offset="0" style="stop-color:#462623"/>
			<stop  offset="0.2415" style="stop-color:#CB9B50"/>
			<stop  offset="0.4415" style="stop-color:#F2E27B"/>
			<stop  offset="0.5" style="stop-color:#F5F2C0"/>
			<stop  offset="0.5585" style="stop-color:#F2E27B"/>
			<stop  offset="0.7732" style="stop-color:#CB9B50"/>
			<stop  offset="1" style="stop-color:#462623"/>
		</radialGradient>
		<path class="st53" d="M120.9,398.5C120.9,398.5,120.9,398.5,120.9,398.5L120.9,398.5c0,0.1,0,0.1,0,0.2c0,0.2,0,0.3,0,0.5v-0.1
			C120.9,398.9,120.9,398.7,120.9,398.5z"/>
		<radialGradient id="SVGID_54_" cx="460" cy="231.5" r="455.195" gradientUnits="userSpaceOnUse">
			<stop  offset="0" style="stop-color:#462623"/>
			<stop  offset="0.2415" style="stop-color:#CB9B50"/>
			<stop  offset="0.4415" style="stop-color:#F2E27B"/>
			<stop  offset="0.5" style="stop-color:#F5F2C0"/>
			<stop  offset="0.5585" style="stop-color:#F2E27B"/>
			<stop  offset="0.7732" style="stop-color:#CB9B50"/>
			<stop  offset="1" style="stop-color:#462623"/>
		</radialGradient>
		<path class="st54" d="M121.1,396.5c0,0.2,0,0.3,0,0.5c0,0.3,0,0.5,0,0.7c0,0.2,0,0.5,0,0.7c0,0.1,0,0.1,0,0.2c0-0.3,0-0.7,0.1-1.1
			c0,0,0,0,0-0.1c0-0.1,0-0.2,0-0.3C121,396.8,121.1,396.7,121.1,396.5z"/>
		<radialGradient id="SVGID_55_" cx="121.695" cy="390.515" r="0.196" gradientUnits="userSpaceOnUse">
			<stop  offset="0" style="stop-color:#462623"/>
			<stop  offset="0.2415" style="stop-color:#CB9B50"/>
			<stop  offset="0.4415" style="stop-color:#F2E27B"/>
			<stop  offset="0.5" style="stop-color:#F5F2C0"/>
			<stop  offset="0.5585" style="stop-color:#F2E27B"/>
			<stop  offset="0.7732" style="stop-color:#CB9B50"/>
			<stop  offset="1" style="stop-color:#462623"/>
		</radialGradient>
		<path class="st55" d="M121.7,390.2c0,0.2,0,0.4-0.1,0.5C121.7,390.6,121.7,390.5,121.7,390.2C121.7,390.3,121.7,390.3,121.7,390.2
			z"/>
		<radialGradient id="SVGID_56_" cx="460" cy="231.5" r="455.195" gradientUnits="userSpaceOnUse">
			<stop  offset="0" style="stop-color:#462623"/>
			<stop  offset="0.2415" style="stop-color:#CB9B50"/>
			<stop  offset="0.4415" style="stop-color:#F2E27B"/>
			<stop  offset="0.5" style="stop-color:#F5F2C0"/>
			<stop  offset="0.5585" style="stop-color:#F2E27B"/>
			<stop  offset="0.7732" style="stop-color:#CB9B50"/>
			<stop  offset="1" style="stop-color:#462623"/>
		</radialGradient>
		<path class="st56" d="M473.9,429.3c0,0.3-0.1,0.7-0.1,1c0,0,0,0,0,0v0.1c-0.1,1.1-0.3,2.6-0.4,3.7c0,0.3-0.1,0.6-0.1,0.8
			c0,0.1,0,0.3-0.1,0.4c-0.1,0.4-0.1,0.8-0.2,1.1c0,0.2-0.1,0.4-0.1,0.6c0,0.2,0,0.4-0.1,0.5c0,0.3-0.1,0.6-0.1,0.8
			c0,0.1,0,0.1,0,0.2c-0.1,0.5-0.2,1.1-0.3,1.9c0,0,0,0,0,0c0,0.1,0,0.2-0.1,0.4c0,0.1,0,0.3-0.1,0.4c0,0.3-0.1,0.6-0.1,0.9
			c0,0.1,0,0.3-0.1,0.4c-0.1,0.6-0.2,1.1-0.3,1.6c0,0.2-0.1,0.3-0.1,0.5c0,0.1,0,0.2,0,0.3c-0.1,0.7-0.2,1.1-0.3,1.6
			c0,0.1-0.1,0.2-0.1,0.4c0,0,0,0,0,0c0,0.1,0,0.3-0.1,0.4c-0.1,0.3-0.1,0.6-0.2,0.9c0,0.1-0.1,0.3-0.1,0.4c0,0.2-0.1,0.4-0.1,0.5
			c0,0.1,0,0.2-0.1,0.3c0,0.1,0,0.1,0,0.2c-0.1,0.3-0.1,0.6-0.2,0.9c0,0.2-0.1,0.4-0.1,0.6c0,0,0,0.1,0,0.1c0,0.1,0,0.2-0.1,0.3
			c0,0,0,0.1,0,0.1c0,0.1,0,0.1,0,0.2c-0.1,0.5-0.2,0.9-0.3,1.2c0,0.1-0.1,0.2-0.1,0.3c0,0,0,0,0,0c0,0,0,0.1,0,0.1
			c-0.1,0.4-0.2,0.9-0.4,1.4c0,0.1-0.1,0.2-0.1,0.3c0,0.1-0.1,0.3-0.1,0.4l-0.7,2.7c0,0.1-0.1,0.3-0.1,0.5c0.4-3.7-0.6-6.7-3.4-9.5
			c2.9,2.9,3.8,5.8,3.4,9.5c0,0,0,0,0,0c-0.1,0.4-0.2,0.7-0.3,1.1c0.8-7.5-3.5-11.8-18.6-18.6c0,0,0,0.1,0,0.2
			c-1.2-0.4-2.8-1.1-4-1.5c-89.6-31.2-330.9-4.8-302,59l-0.7-1.3l-0.1-0.1l-0.9-1.7c-0.6-1.1-1-1.8-1.3-2.5c-0.2-0.3-0.3-0.6-0.5-1
			c0-0.1-0.1-0.2-0.2-0.3c-0.3-0.6-0.7-1.3-1.1-2.2c-0.1-0.1-0.1-0.3-0.2-0.4c-0.1-0.1-0.1-0.3-0.2-0.4c-0.4-0.9-0.8-1.6-1.1-2.2
			c-0.1-0.2-0.2-0.4-0.2-0.5c-0.1-0.2-0.2-0.4-0.3-0.6c-0.2-0.4-0.4-0.8-0.6-1.3c0,0,0,0,0-0.1c0-0.1-0.1-0.2-0.1-0.3
			c0-0.1-0.1-0.2-0.1-0.3c-0.1-0.2-0.2-0.5-0.3-0.7c-0.1-0.3-0.2-0.5-0.3-0.8c-0.2-0.5-0.4-0.9-0.5-1.2c-0.2-0.5-0.3-0.8-0.5-1.2
			c-0.1-0.2-0.2-0.4-0.3-0.6c-0.3-0.7-0.6-1.5-1.1-2.7c-0.1-0.1-0.1-0.3-0.2-0.4c-0.1-0.3-0.2-0.5-0.3-0.7c-0.1-0.2-0.2-0.5-0.3-0.7
			c0,0,0,0,0,0c-0.2-0.5-0.4-1.1-0.6-1.7c-0.2-0.6-0.5-1.3-0.8-2.3c-0.1-0.2-0.2-0.4-0.2-0.7c0,0,0,0,0-0.1
			c-0.1-0.3-0.2-0.5-0.3-0.8l-0.1-0.2c-16-62.4,226.2-94.2,325.4-57c0,0,0-0.1,0-0.2C473.1,419.5,473.6,425.2,473.9,429.3z"/>
		<radialGradient id="SVGID_57_" cx="460" cy="231.5" r="455.195" gradientUnits="userSpaceOnUse">
			<stop  offset="0" style="stop-color:#462623"/>
			<stop  offset="0.2415" style="stop-color:#CB9B50"/>
			<stop  offset="0.4415" style="stop-color:#F2E27B"/>
			<stop  offset="0.5" style="stop-color:#F5F2C0"/>
			<stop  offset="0.5585" style="stop-color:#F2E27B"/>
			<stop  offset="0.7732" style="stop-color:#CB9B50"/>
			<stop  offset="1" style="stop-color:#462623"/>
		</radialGradient>
		<path class="st57" d="M468.4,458.9c0-0.2,0.1-0.3,0.1-0.5L468.4,458.9L468.4,458.9C468.4,458.9,468.4,458.9,468.4,458.9z"/>
		<radialGradient id="SVGID_58_" cx="460" cy="231.5" r="455.195" gradientUnits="userSpaceOnUse">
			<stop  offset="0" style="stop-color:#462623"/>
			<stop  offset="0.2415" style="stop-color:#CB9B50"/>
			<stop  offset="0.4415" style="stop-color:#F2E27B"/>
			<stop  offset="0.5" style="stop-color:#F5F2C0"/>
			<stop  offset="0.5585" style="stop-color:#F2E27B"/>
			<stop  offset="0.7732" style="stop-color:#CB9B50"/>
			<stop  offset="1" style="stop-color:#462623"/>
		</radialGradient>
		<path class="st58" d="M469.4,455c0.1-0.6,0.3-1,0.4-1.4c-0.1,0.3-0.1,0.5-0.2,0.8c0,0.1,0,0.2-0.1,0.3
			C469.5,454.7,469.5,454.8,469.4,455z"/>
		<radialGradient id="SVGID_59_" cx="460" cy="231.5" r="455.195" gradientUnits="userSpaceOnUse">
			<stop  offset="0" style="stop-color:#462623"/>
			<stop  offset="0.2415" style="stop-color:#CB9B50"/>
			<stop  offset="0.4415" style="stop-color:#F2E27B"/>
			<stop  offset="0.5" style="stop-color:#F5F2C0"/>
			<stop  offset="0.5585" style="stop-color:#F2E27B"/>
			<stop  offset="0.7732" style="stop-color:#CB9B50"/>
			<stop  offset="1" style="stop-color:#462623"/>
		</radialGradient>
		<path class="st59" d="M471.3,446.8c0-0.1,0.1-0.3,0.1-0.4C471.3,446.6,471.3,446.7,471.3,446.8c0,0.1-0.1,0.3-0.1,0.6
			c0,0.2-0.1,0.5-0.2,0.7c0.1-0.3,0.1-0.6,0.2-0.9C471.2,447.1,471.2,447,471.3,446.8C471.3,446.8,471.3,446.8,471.3,446.8z"/>
		<radialGradient id="SVGID_60_" cx="460" cy="231.5" r="455.195" gradientUnits="userSpaceOnUse">
			<stop  offset="0" style="stop-color:#462623"/>
			<stop  offset="0.2415" style="stop-color:#CB9B50"/>
			<stop  offset="0.4415" style="stop-color:#F2E27B"/>
			<stop  offset="0.5" style="stop-color:#F5F2C0"/>
			<stop  offset="0.5585" style="stop-color:#F2E27B"/>
			<stop  offset="0.7732" style="stop-color:#CB9B50"/>
			<stop  offset="1" style="stop-color:#462623"/>
		</radialGradient>
		<path class="st60" d="M472.5,424.9c-0.2-0.4-0.5-0.8-0.8-1.2C471.9,424,472.2,424.5,472.5,424.9z"/>
		<radialGradient id="SVGID_61_" cx="460" cy="231.5" r="455.195" gradientUnits="userSpaceOnUse">
			<stop  offset="0" style="stop-color:#462623"/>
			<stop  offset="0.2415" style="stop-color:#CB9B50"/>
			<stop  offset="0.4415" style="stop-color:#F2E27B"/>
			<stop  offset="0.5" style="stop-color:#F5F2C0"/>
			<stop  offset="0.5585" style="stop-color:#F2E27B"/>
			<stop  offset="0.7732" style="stop-color:#CB9B50"/>
			<stop  offset="1" style="stop-color:#462623"/>
		</radialGradient>
		<path class="st61" d="M472.4,440.5c0.1-0.7,0.2-1.4,0.3-1.9c0,0.1,0,0.3-0.1,0.4c0,0.1,0,0.2,0,0.3c0,0.1,0,0.1,0,0.2
			c0,0.1,0,0.2-0.1,0.3c0,0.1,0,0.2-0.1,0.4c0,0.2-0.1,0.4-0.1,0.7C472.4,440.8,472.4,440.6,472.4,440.5
			C472.4,440.5,472.4,440.5,472.4,440.5z"/>
	</g>
	<radialGradient id="SVGID_62_" cx="460" cy="231.5" r="455.195" gradientUnits="userSpaceOnUse">
		<stop  offset="0" style="stop-color:#462623"/>
		<stop  offset="0.2415" style="stop-color:#CB9B50"/>
		<stop  offset="0.4415" style="stop-color:#F2E27B"/>
		<stop  offset="0.5" style="stop-color:#F5F2C0"/>
		<stop  offset="0.5585" style="stop-color:#F2E27B"/>
		<stop  offset="0.7732" style="stop-color:#CB9B50"/>
		<stop  offset="1" style="stop-color:#462623"/>
	</radialGradient>
	<path class="st62" d="M471.7,423.6c0.3,0.4,0.6,0.8,0.8,1.2C472.2,424.5,471.9,424,471.7,423.6z M473,436.4c0,0.2-0.1,0.4-0.1,0.6
		c0,0,0,0.1,0,0.1c0.1-0.4,0.1-0.7,0.1-1C473.1,436.3,473,436.3,473,436.4z M473.2,435.3c0,0.1,0,0.2,0,0.3c0-0.2,0.1-0.4,0.1-0.7
		C473.2,435,473.2,435.2,473.2,435.3z M473.1,436.2c0-0.1,0-0.2,0-0.3c0,0,0,0,0,0C473.1,436,473.1,436.1,473.1,436.2z M471.8,444.1
		c0,0.1,0,0.1,0,0.2c0.1-0.7,0.2-1.2,0.3-1.8C472,443.2,471.9,443.7,471.8,444.1z M470.5,450.5c0,0.2-0.1,0.4-0.1,0.6
		c0,0,0,0.1,0,0.1c0,0.1,0,0.1,0,0.2c0.2-0.7,0.3-1.2,0.4-1.8C470.6,449.9,470.5,450.2,470.5,450.5z M470.7,449.4c0,0,0,0.1,0,0.1
		c0-0.1,0.1-0.3,0.1-0.4C470.8,449.2,470.8,449.3,470.7,449.4z M449.7,340.9c0,0.1,0.1,0.3,0.1,0.4
		C449.8,341.1,449.7,341,449.7,340.9L449.7,340.9z M121.1,395.8c0,0.1,0,0.2,0,0.3c0-0.2,0-0.4,0-0.5c0.1-0.5,0.1-1.1,0.2-1.7
		c0-0.4,0.1-0.8,0.1-1.1c0-0.1,0-0.2,0-0.3C121.3,394,121.2,394.6,121.1,395.8z M120.7,402.8c0-0.2,0-0.4,0-0.5c0-0.2,0-0.5,0-0.7
		c0-0.2,0-0.3,0-0.5c0-0.3,0-0.6,0-0.9C120.7,401.4,120.7,402,120.7,402.8z M120.6,417.6c0-0.2,0-0.4,0-0.6c0-0.3,0-0.5,0-0.7
		c0,0,0-0.1,0-0.2c0,0.9,0,1.6,0.1,2.5C120.6,418.3,120.6,418,120.6,417.6z M120.5,409.4v-0.2c0,0.1,0,0.3,0,0.4
		C120.5,409.6,120.5,409.5,120.5,409.4z M472.4,440.5c0-0.1,0-0.2,0.1-0.3c0-0.1,0-0.2,0.1-0.4c0-0.1,0-0.2,0.1-0.3
		c0-0.1,0-0.1,0-0.2c0-0.1,0-0.2,0-0.3c0-0.1,0-0.3,0.1-0.4C472.6,439.2,472.5,439.8,472.4,440.5z M471,448.1
		c0.1-0.3,0.1-0.5,0.2-0.7c0-0.1,0-0.1,0-0.2C471.1,447.5,471.1,447.8,471,448.1z M471.3,446.8C471.3,446.8,471.3,446.8,471.3,446.8
		c0-0.2,0.1-0.3,0.1-0.4C471.3,446.6,471.3,446.7,471.3,446.8z M468.4,458.9C468.4,458.9,468.4,458.9,468.4,458.9L468.4,458.9
		l0.1-0.5C468.5,458.6,468.4,458.8,468.4,458.9z M121.7,390.3c0,0.1,0,0.3-0.1,0.5C121.7,390.6,121.7,390.4,121.7,390.3
		C121.7,390.3,121.7,390.3,121.7,390.3z M121,397c0,0.1,0,0.3,0,0.4c0,0.4-0.1,0.8-0.1,1.1c0,0,0,0,0,0.1c0,0.1,0,0.2,0,0.3
		c0,0,0-0.1,0-0.1c0,0,0-0.1,0-0.1c0-0.1,0-0.2,0-0.3c0-0.2,0-0.4,0-0.7c0-0.1,0-0.2,0-0.4C121,397.2,121,397.1,121,397
		c0-0.1,0-0.3,0-0.5C121.1,396.7,121,396.8,121,397z M120.9,399.2c0-0.1,0-0.2,0-0.3C120.9,399,120.9,399,120.9,399.2L120.9,399.2z
		 M120.5,406.1v0.2c0,0,0,0.1,0,0.2v0.2C120.5,406.5,120.5,406.3,120.5,406.1c0,0,0-0.1,0-0.2c0-0.1,0-0.3,0-0.4c0-0.1,0-0.2,0-0.3
		c0-0.1,0-0.2,0-0.3C120.6,405.3,120.5,405.6,120.5,406.1z"/>
	<g>
		<radialGradient id="SVGID_63_" cx="460" cy="231.4368" r="455.4487" gradientUnits="userSpaceOnUse">
			<stop  offset="0" style="stop-color:#462623"/>
			<stop  offset="0.2415" style="stop-color:#CB9B50"/>
			<stop  offset="0.4415" style="stop-color:#F2E27B"/>
			<stop  offset="0.5" style="stop-color:#F5F2C0"/>
			<stop  offset="0.5585" style="stop-color:#F2E27B"/>
			<stop  offset="0.7732" style="stop-color:#CB9B50"/>
			<stop  offset="1" style="stop-color:#462623"/>
		</radialGradient>
		<path class="st63" d="M444.2,312.1c-0.2-0.3-0.4-0.6-0.7-0.9c-0.1-0.2-0.3-0.4-0.4-0.6c-0.4-0.5-0.8-1.1-1.1-1.6
			c-0.1-0.1-0.2-0.2-0.3-0.4c-0.2-0.2-0.3-0.4-0.4-0.6c0,0,0,0,0,0c-0.5-0.7-0.9-1.2-1.2-1.7c-0.1-0.1-0.2-0.3-0.3-0.4
			c-0.1-0.1-0.2-0.2-0.3-0.3c-0.4-0.5-0.9-1.2-1.6-2.1c-0.1-0.1-0.2-0.2-0.3-0.3c-0.2-0.2-0.4-0.5-0.5-0.7c-0.3-0.4-0.6-0.7-0.8-1
			c-0.2-0.2-0.3-0.4-0.4-0.5c-0.1-0.1-0.2-0.3-0.3-0.4c-0.2-0.3-0.4-0.5-0.6-0.7c-0.4-0.5-1-1.2-1.7-2c-0.1-0.1-0.2-0.2-0.3-0.3
			c-0.1-0.1-0.2-0.2-0.3-0.3c-0.3-0.3-0.5-0.6-0.7-0.8c0,0,0,0,0-0.1c-0.1-0.1-0.2-0.2-0.2-0.3c-0.4-0.4-0.7-0.8-0.9-1.1
			c-0.1-0.1-0.2-0.2-0.3-0.3c-0.1-0.1-0.1-0.1-0.2-0.2c-0.4-0.5-1-1-1.7-1.8c-0.2-0.2-0.4-0.4-0.6-0.6c-0.3-0.3-0.5-0.6-0.8-0.9
			c-0.2-0.3-0.5-0.5-0.7-0.8c-0.2-0.2-0.4-0.4-0.6-0.6c0,0-0.1,0-0.1-0.1c-0.3-0.3-0.6-0.6-0.9-0.9c-0.1,0-0.1-0.1-0.2-0.2
			c-0.1-0.1-0.3-0.3-0.4-0.4c-0.2-0.2-0.5-0.5-0.7-0.7c-3.3-2.8-3.5-3-7.5-5c0,0,0.1,0.1,0.1,0.1c0,0,0,0,0,0
			c0.7,0.8,1.4,1.6,2.1,2.4c-0.7-0.8-1.4-1.6-2.2-2.4C355,254.9,179.9,269.4,150,313.7l-0.5,0.7c-0.1,0.1-0.1,0.2-0.2,0.3l0,0
			c-0.5,0.8-1.1,1.8-1.7,2.7c-0.1,0.2-0.3,0.4-0.4,0.6c-0.2,0.4-0.5,0.7-0.7,1.1c0,0,0,0.1-0.1,0.1c-0.1,0.2-0.2,0.4-0.4,0.6v0
			c-0.1,0.2-0.3,0.5-0.4,0.7c-0.2,0.3-0.3,0.5-0.4,0.7c-0.1,0.2-0.2,0.4-0.3,0.5c0,0,0,0.1,0,0.1c-0.1,0.1-0.2,0.3-0.2,0.4
			c-0.2,0.3-0.3,0.5-0.5,0.8c-0.1,0.1-0.1,0.2-0.2,0.3c-0.2,0.4-0.5,0.9-0.8,1.4c-0.1,0.1-0.1,0.2-0.2,0.3c-0.1,0.1-0.1,0.2-0.2,0.4
			c-0.1,0.3-0.3,0.5-0.5,0.8c-0.1,0.1-0.1,0.3-0.2,0.4c-0.4,0.8-0.7,1.3-1,1.8c0,0.1-0.1,0.1-0.1,0.2c0,0.1-0.1,0.1-0.1,0.2
			c0,0,0,0,0,0c0,0,0,0.1-0.1,0.1c0,0,0,0.1-0.1,0.1c0,0.1,0,0.1-0.1,0.2c-0.2,0.3-0.4,0.7-0.6,1.2c-0.1,0.1-0.1,0.2-0.2,0.4
			c-0.1,0.2-0.2,0.5-0.4,0.7c-0.1,0.2-0.2,0.4-0.3,0.7c-0.1,0.2-0.2,0.5-0.4,0.8c-0.1,0.3-0.2,0.5-0.3,0.7l0,0
			c-0.1,0.1-0.1,0.3-0.2,0.4c-0.1,0.2-0.2,0.5-0.3,0.7c-0.3,0.5-0.5,1-0.7,1.3c-0.1,0.3-0.3,0.6-0.4,0.9c-0.1,0.1-0.1,0.3-0.2,0.4
			c-0.1,0.3-0.2,0.5-0.4,0.8c-0.1,0.2-0.2,0.5-0.4,0.8c-0.1,0.1-0.1,0.3-0.2,0.4l-0.8,1.8l0,0l-0.5,1.2
			c29.7-55.6,231.4-67.7,298.7-38.6c0,0,0-0.1-0.1-0.1C438.7,306.9,441.3,308.3,444.2,312.1z M162.7,317.4c1.2-0.6,2.4-1.2,3.7-1.8
			C165.1,316.1,163.9,316.7,162.7,317.4z M167.6,314.9c1.7-0.8,3.4-1.6,5.2-2.3C171,313.4,169.3,314.1,167.6,314.9z M176.9,311
			c3.2-1.3,6.5-2.5,9.9-3.6C183.4,308.5,180.1,309.7,176.9,311z M190,306.3c2.5-0.8,5.1-1.6,7.8-2.3
			C195.1,304.7,192.5,305.5,190,306.3z M214.3,299.7c6.8-1.5,13.8-3,21-4.2C228,296.8,221,298.2,214.3,299.7z"/>
		<radialGradient id="SVGID_64_" cx="460" cy="231.5" r="455.195" gradientUnits="userSpaceOnUse">
			<stop  offset="0" style="stop-color:#462623"/>
			<stop  offset="0.2415" style="stop-color:#CB9B50"/>
			<stop  offset="0.4415" style="stop-color:#F2E27B"/>
			<stop  offset="0.5" style="stop-color:#F5F2C0"/>
			<stop  offset="0.5585" style="stop-color:#F2E27B"/>
			<stop  offset="0.7732" style="stop-color:#CB9B50"/>
			<stop  offset="1" style="stop-color:#462623"/>
		</radialGradient>
		<path class="st64" d="M134.9,341.5l0.9-1.9l-0.8,1.8l0,0C134.9,341.4,134.9,341.5,134.9,341.5z"/>
		<radialGradient id="SVGID_65_" cx="460" cy="231.5" r="455.195" gradientUnits="userSpaceOnUse">
			<stop  offset="0" style="stop-color:#462623"/>
			<stop  offset="0.2415" style="stop-color:#CB9B50"/>
			<stop  offset="0.4415" style="stop-color:#F2E27B"/>
			<stop  offset="0.5" style="stop-color:#F5F2C0"/>
			<stop  offset="0.5585" style="stop-color:#F2E27B"/>
			<stop  offset="0.7732" style="stop-color:#CB9B50"/>
			<stop  offset="1" style="stop-color:#462623"/>
		</radialGradient>
		<path class="st65" d="M137.3,336.2c0.3-0.5,0.5-1,0.7-1.3C137.7,335.3,137.5,335.8,137.3,336.2z"/>
		<radialGradient id="SVGID_66_" cx="460" cy="231.5" r="455.195" gradientUnits="userSpaceOnUse">
			<stop  offset="0" style="stop-color:#462623"/>
			<stop  offset="0.2415" style="stop-color:#CB9B50"/>
			<stop  offset="0.4415" style="stop-color:#F2E27B"/>
			<stop  offset="0.5" style="stop-color:#F5F2C0"/>
			<stop  offset="0.5585" style="stop-color:#F2E27B"/>
			<stop  offset="0.7732" style="stop-color:#CB9B50"/>
			<stop  offset="1" style="stop-color:#462623"/>
		</radialGradient>
		<path class="st66" d="M138.1,334.4c0.1-0.2,0.2-0.4,0.3-0.6c-0.1,0.1-0.1,0.3-0.2,0.4c-0.1,0.2-0.2,0.5-0.3,0.7
			C138,334.7,138.1,334.5,138.1,334.4z"/>
		<radialGradient id="SVGID_67_" cx="460" cy="231.5" r="455.195" gradientUnits="userSpaceOnUse">
			<stop  offset="0" style="stop-color:#462623"/>
			<stop  offset="0.2415" style="stop-color:#CB9B50"/>
			<stop  offset="0.4415" style="stop-color:#F2E27B"/>
			<stop  offset="0.5" style="stop-color:#F5F2C0"/>
			<stop  offset="0.5585" style="stop-color:#F2E27B"/>
			<stop  offset="0.7732" style="stop-color:#CB9B50"/>
			<stop  offset="1" style="stop-color:#462623"/>
		</radialGradient>
		<path class="st67" d="M140.9,329C140.9,329,140.9,328.9,140.9,329C140.9,328.9,140.9,329,140.9,329C140.9,329,140.8,329,140.9,329
			C140.8,329,140.8,329,140.9,329z"/>
		<radialGradient id="SVGID_68_" cx="460" cy="231.5" r="455.195" gradientUnits="userSpaceOnUse">
			<stop  offset="0" style="stop-color:#462623"/>
			<stop  offset="0.2415" style="stop-color:#CB9B50"/>
			<stop  offset="0.4415" style="stop-color:#F2E27B"/>
			<stop  offset="0.5" style="stop-color:#F5F2C0"/>
			<stop  offset="0.5585" style="stop-color:#F2E27B"/>
			<stop  offset="0.7732" style="stop-color:#CB9B50"/>
			<stop  offset="1" style="stop-color:#462623"/>
		</radialGradient>
		<path class="st68" d="M144.8,322c0-0.1,0.1-0.2,0.2-0.2c0,0,0,0.1,0,0.1c-0.1,0.1-0.2,0.3-0.2,0.4c-0.2,0.3-0.3,0.5-0.5,0.8
			c-0.1,0.1-0.1,0.2-0.2,0.3C144.3,322.8,144.5,322.4,144.8,322C144.8,322,144.8,322,144.8,322z"/>
		<radialGradient id="SVGID_69_" cx="460" cy="231.5" r="455.195" gradientUnits="userSpaceOnUse">
			<stop  offset="0" style="stop-color:#462623"/>
			<stop  offset="0.2415" style="stop-color:#CB9B50"/>
			<stop  offset="0.4415" style="stop-color:#F2E27B"/>
			<stop  offset="0.5" style="stop-color:#F5F2C0"/>
			<stop  offset="0.5585" style="stop-color:#F2E27B"/>
			<stop  offset="0.7732" style="stop-color:#CB9B50"/>
			<stop  offset="1" style="stop-color:#462623"/>
		</radialGradient>
		<path class="st69" d="M465.3,354.3c0-0.1-0.1-0.3-0.1-0.4c0,0,0,0,0,0C465.2,354.1,465.3,354.2,465.3,354.3z"/>
		<radialGradient id="SVGID_70_" cx="460" cy="231.5" r="455.195" gradientUnits="userSpaceOnUse">
			<stop  offset="0" style="stop-color:#462623"/>
			<stop  offset="0.2415" style="stop-color:#CB9B50"/>
			<stop  offset="0.4415" style="stop-color:#F2E27B"/>
			<stop  offset="0.5" style="stop-color:#F5F2C0"/>
			<stop  offset="0.5585" style="stop-color:#F2E27B"/>
			<stop  offset="0.7732" style="stop-color:#CB9B50"/>
			<stop  offset="1" style="stop-color:#462623"/>
		</radialGradient>
		<path class="st70" d="M468.8,365.9c0.1,0.4,0.2,0.7,0.3,1.2C469,366.6,468.9,366.2,468.8,365.9z"/>
		<radialGradient id="SVGID_71_" cx="460" cy="231.5" r="455.195" gradientUnits="userSpaceOnUse">
			<stop  offset="0" style="stop-color:#462623"/>
			<stop  offset="0.2415" style="stop-color:#CB9B50"/>
			<stop  offset="0.4415" style="stop-color:#F2E27B"/>
			<stop  offset="0.5" style="stop-color:#F5F2C0"/>
			<stop  offset="0.5585" style="stop-color:#F2E27B"/>
			<stop  offset="0.7732" style="stop-color:#CB9B50"/>
			<stop  offset="1" style="stop-color:#462623"/>
		</radialGradient>
		<path class="st71" d="M470.7,373.8c-0.1-0.4-0.2-0.7-0.2-1c0,0,0-0.1,0-0.1c0,0.1,0,0.2,0.1,0.3
			C470.6,373.2,470.7,373.5,470.7,373.8z"/>
	</g>
	<radialGradient id="SVGID_72_" cx="460" cy="231.5" r="455.195" gradientUnits="userSpaceOnUse">
		<stop  offset="0" style="stop-color:#462623"/>
		<stop  offset="0.2415" style="stop-color:#CB9B50"/>
		<stop  offset="0.4415" style="stop-color:#F2E27B"/>
		<stop  offset="0.5" style="stop-color:#F5F2C0"/>
		<stop  offset="0.5585" style="stop-color:#F2E27B"/>
		<stop  offset="0.7732" style="stop-color:#CB9B50"/>
		<stop  offset="1" style="stop-color:#462623"/>
	</radialGradient>
	<path class="st72" d="M471.2,376.2c0.3,1.4,0.5,2.9,0.8,4.4C471.6,378.2,471.5,377.5,471.2,376.2z M468.2,363.5
		C468.2,363.5,468.2,363.5,468.2,363.5C468.2,363.5,468.2,363.6,468.2,363.5C468.2,363.5,468.2,363.5,468.2,363.5z M465.7,355.4
		c0.2,0.7,0.5,1.5,0.7,2.2C466.1,356.6,465.9,356,465.7,355.4z M449.8,341.3c0-0.1-0.1-0.3-0.1-0.4h0c0.1,0.2,0.1,0.5,0.2,0.7
		C449.8,341.5,449.8,341.4,449.8,341.3z M416.7,282.6C416.7,282.6,416.7,282.6,416.7,282.6c0.7,0.8,1.4,1.6,2.1,2.4
		C418.1,284.1,417.4,283.4,416.7,282.6z M146.5,319.1c0,0,0.1-0.1,0.1-0.1c0.2-0.4,0.5-0.7,0.7-1.1c0.1-0.2,0.3-0.4,0.4-0.6
		C147.1,318.1,146.8,318.6,146.5,319.1z M142.9,325.3c0-0.1,0.1-0.1,0.1-0.2c0.1-0.1,0.1-0.2,0.2-0.3
		C143.1,324.9,143,325.1,142.9,325.3z M142.8,325.5c0-0.1,0.1-0.1,0.1-0.2c-0.2,0.3-0.4,0.6-0.6,1
		C142.5,326,142.7,325.7,142.8,325.5z M470.6,372.9c0-0.1,0-0.1,0-0.2c0.1,0.3,0.1,0.6,0.2,1C470.7,373.5,470.6,373.2,470.6,372.9z
		 M469.1,367c-0.1-0.4-0.2-0.8-0.3-1.2C468.9,366.2,469,366.6,469.1,367z M465.2,354C465.2,354,465.2,354,465.2,354
		c0,0.1,0.1,0.3,0.1,0.4C465.3,354.2,465.2,354.1,465.2,354z M144.8,322C144.8,322,144.8,322,144.8,322c0,0.1-0.1,0.2-0.1,0.3
		c0.1-0.1,0.2-0.3,0.2-0.4C144.8,321.8,144.8,321.9,144.8,322z M137.3,336.2c0.2-0.4,0.4-0.8,0.7-1.3
		C137.7,335.2,137.5,335.6,137.3,336.2z M138.1,334.4c-0.1,0.1-0.1,0.3-0.2,0.4c0.1-0.2,0.2-0.4,0.3-0.7
		C138.2,334.2,138.2,334.3,138.1,334.4z M134.9,341.5c0-0.1,0-0.1,0.1-0.2l0,0l0.8-1.8L134.9,341.5z"/>
	<radialGradient id="SVGID_73_" cx="460" cy="231.5" r="455.195" gradientUnits="userSpaceOnUse">
		<stop  offset="0" style="stop-color:#462623"/>
		<stop  offset="0.2415" style="stop-color:#CB9B50"/>
		<stop  offset="0.4415" style="stop-color:#F2E27B"/>
		<stop  offset="0.5" style="stop-color:#F5F2C0"/>
		<stop  offset="0.5585" style="stop-color:#F2E27B"/>
		<stop  offset="0.7732" style="stop-color:#CB9B50"/>
		<stop  offset="1" style="stop-color:#462623"/>
	</radialGradient>
	<path class="st73" d="M455.4,368.7c0,0,0,0.1,0,0.2c-83-33.7-331.2-13-334.7,53.1l-0.1-1.2l-0.1-2c0-0.4,0-0.8,0-1.1
		c0-0.2,0-0.4,0-0.6c0-0.3,0-0.5,0-0.7c0-0.1,0-0.2,0-0.3c0-0.1,0-0.2,0-0.3c0-0.2,0-0.3,0-0.5c0-0.4,0-0.8,0-1.2c0-0.4,0-0.8,0-1.3
		c0-0.5,0-1,0-1.5c0-0.5,0-0.9,0-1.2c0-0.3,0-0.5,0-0.7v-0.2c0-0.3,0-0.5,0-0.7c0-0.4,0-0.8,0-1.2c0-0.2,0-0.4,0-0.7
		c0-0.1,0-0.3,0-0.5c0-0.1,0-0.2,0-0.3c0-0.1,0-0.3,0-0.4c0-0.1,0-0.2,0-0.3c0-0.1,0-0.2,0-0.3c0-0.3,0-0.5,0-0.9c0-0.2,0-0.3,0-0.5
		c0-0.2,0-0.4,0-0.6s0-0.4,0-0.5c0-0.2,0-0.5,0-0.7c0-0.2,0-0.3,0-0.5c0-0.3,0-0.6,0-0.9c0-0.2,0-0.4,0-0.6c0-0.1,0-0.1,0-0.2
		c0-0.1,0-0.2,0-0.3c0-0.1,0-0.3,0-0.5c0,0,0-0.1,0-0.1c0-0.1,0-0.2,0-0.3c0-0.2,0-0.4,0-0.7c0-0.2,0-0.5,0-0.7c0-0.1,0-0.3,0-0.5
		c0-0.2,0-0.3,0-0.4c0-0.2,0-0.4,0-0.5c0.1-0.5,0.1-1.1,0.2-1.7c0-0.4,0.1-0.8,0.1-1.1c0-0.1,0-0.2,0-0.3c0-0.3,0.1-0.6,0.1-0.8
		c0,0,0-0.1,0-0.1c0-0.2,0-0.4,0.1-0.7c0-0.2,0.1-0.3,0.1-0.5c0-0.3,0.1-0.7,0.1-1.1c7.6-59.3,239-84.4,327.8-48.3
		c0.1,0.2,0.1,0.5,0.2,0.7c0-0.1,0-0.2-0.1-0.3c0-0.1-0.1-0.3-0.1-0.4h0c0,0,0-0.1,0-0.2c11.1,5.3,12.9,8,15.2,12.2l0.3,1l0,0
		c0,0.1,0.1,0.3,0.1,0.4c0.1,0.3,0.2,0.5,0.2,0.7c0,0.1,0.1,0.2,0.1,0.3c0.2,0.7,0.5,1.5,0.7,2.2c0.1,0.3,0.2,0.6,0.3,0.9
		c0.1,0.4,0.3,0.9,0.4,1.3c0.1,0.4,0.2,0.8,0.4,1.2c0.3,0.8,0.4,1.5,0.6,2.1c0,0.1,0,0.2,0.1,0.3c0,0.1,0,0.1,0.1,0.2
		c0,0.1,0.1,0.2,0.1,0.3c0,0.1,0.1,0.2,0.1,0.3c0,0,0,0,0,0c0.1,0.2,0.1,0.4,0.2,0.6c0,0.2,0.1,0.3,0.1,0.5s0.1,0.4,0.2,0.6
		c0.1,0.3,0.2,0.7,0.3,1.2c0,0.2,0.1,0.4,0.1,0.5c0,0.2,0.1,0.3,0.1,0.5c0,0.1,0.1,0.3,0.1,0.4c0.1,0.6,0.3,1.2,0.4,1.7
		c0,0,0,0.1,0,0.1c0,0.2,0.1,0.3,0.1,0.5c0,0.1,0,0.2,0.1,0.3c0,0.1,0,0.2,0.1,0.3c0,0.2,0.1,0.4,0.1,0.6c0,0,0,0,0,0
		c0,0.1,0,0.2,0.1,0.3c0,0.1,0,0.2,0.1,0.3c0,0,0,0.1,0,0.1c0.1,0.3,0.1,0.6,0.2,1c0,0.2,0.1,0.4,0.1,0.6c0.1,0.3,0.1,0.5,0.2,0.8
		c0.1,0.3,0.1,0.6,0.2,1c0.3,1.4,0.5,2.9,0.8,4.4c0.1,0.3,0.1,0.7,0.2,1.1c0,0.2,0.1,0.4,0.1,0.6c0,0.1,0,0.2,0,0.2l0.1,0.9
		C471,376.3,462.7,372.2,455.4,368.7z"/>
	<radialGradient id="SVGID_74_" cx="120.54" cy="406.37" r="0.1628" gradientUnits="userSpaceOnUse">
		<stop  offset="0" style="stop-color:#462623"/>
		<stop  offset="0.2415" style="stop-color:#CB9B50"/>
		<stop  offset="0.4415" style="stop-color:#F2E27B"/>
		<stop  offset="0.5" style="stop-color:#F5F2C0"/>
		<stop  offset="0.5585" style="stop-color:#F2E27B"/>
		<stop  offset="0.7732" style="stop-color:#CB9B50"/>
		<stop  offset="1" style="stop-color:#462623"/>
	</radialGradient>
	<path class="st74" d="M120.5,406.2C120.5,406.2,120.5,406.2,120.5,406.2c0,0.1,0,0.2,0,0.4C120.5,406.5,120.5,406.4,120.5,406.2z"
		/>
	<radialGradient id="SVGID_75_" cx="120.94" cy="398.47" r="0.1063" gradientUnits="userSpaceOnUse">
		<stop  offset="0" style="stop-color:#462623"/>
		<stop  offset="0.2415" style="stop-color:#CB9B50"/>
		<stop  offset="0.4415" style="stop-color:#F2E27B"/>
		<stop  offset="0.5" style="stop-color:#F5F2C0"/>
		<stop  offset="0.5585" style="stop-color:#F2E27B"/>
		<stop  offset="0.7732" style="stop-color:#CB9B50"/>
		<stop  offset="1" style="stop-color:#462623"/>
	</radialGradient>
	<path class="st75" d="M120.9,398.5c0,0,0-0.1,0-0.2c0,0.1,0,0.2,0,0.3V398.5z"/>
	<radialGradient id="SVGID_76_" cx="121.145" cy="395.805" r="0.1882" gradientUnits="userSpaceOnUse">
		<stop  offset="0" style="stop-color:#462623"/>
		<stop  offset="0.2415" style="stop-color:#CB9B50"/>
		<stop  offset="0.4415" style="stop-color:#F2E27B"/>
		<stop  offset="0.5" style="stop-color:#F5F2C0"/>
		<stop  offset="0.5585" style="stop-color:#F2E27B"/>
		<stop  offset="0.7732" style="stop-color:#CB9B50"/>
		<stop  offset="1" style="stop-color:#462623"/>
	</radialGradient>
	<path class="st76" d="M121.1,395.8c0-0.1,0-0.2,0-0.3c0,0.2,0,0.4,0,0.5C121.1,396,121.1,395.9,121.1,395.8z"/>
	<radialGradient id="SVGID_77_" cx="460" cy="231.5" r="455.195" gradientUnits="userSpaceOnUse">
		<stop  offset="0" style="stop-color:#462623"/>
		<stop  offset="0.2415" style="stop-color:#CB9B50"/>
		<stop  offset="0.4415" style="stop-color:#F2E27B"/>
		<stop  offset="0.5" style="stop-color:#F5F2C0"/>
		<stop  offset="0.5585" style="stop-color:#F2E27B"/>
		<stop  offset="0.7732" style="stop-color:#CB9B50"/>
		<stop  offset="1" style="stop-color:#462623"/>
	</radialGradient>
	<path class="st77" d="M449.8,341.3c0,0.1,0,0.2,0.1,0.3c-0.1-0.2-0.1-0.5-0.2-0.7C449.7,341,449.8,341.1,449.8,341.3z"/>
	<g>
		<radialGradient id="SVGID_78_" cx="460" cy="231.5" r="455.195" gradientUnits="userSpaceOnUse">
			<stop  offset="0" style="stop-color:#462623"/>
			<stop  offset="0.2415" style="stop-color:#CB9B50"/>
			<stop  offset="0.4415" style="stop-color:#F2E27B"/>
			<stop  offset="0.5" style="stop-color:#F5F2C0"/>
			<stop  offset="0.5585" style="stop-color:#F2E27B"/>
			<stop  offset="0.7732" style="stop-color:#CB9B50"/>
			<stop  offset="1" style="stop-color:#462623"/>
		</radialGradient>
		<path class="st78" d="M189.5,271.3c3.9-3,4-3,6.1-4.5c4.2-2.9,4.2-2.9,6.4-4.3c4.3-2.7,4.3-2.7,6.6-4.1c1.1-0.6,2.5-1.4,3.5-2
			c40.7-20.8,115.8-21.5,144.6-11.9l0.4,0.1c4.8,1.8,5.2,1.9,8.2,3.2c4.7,2,4.9,2.1,7.7,3.4c4.6,2.2,4.7,2.3,7.3,3.6
			c1,0.6,2.4,1.3,3.5,1.9c0.5,0.3,1,0.6,1.6,0.9c-40.7-20-163.9-12.8-201.5,18.1C185.5,274.5,187.7,272.6,189.5,271.3L189.5,271.3z"
			/>
		<radialGradient id="SVGID_79_" cx="460" cy="231.5" r="455.195" gradientUnits="userSpaceOnUse">
			<stop  offset="0" style="stop-color:#462623"/>
			<stop  offset="0.2415" style="stop-color:#CB9B50"/>
			<stop  offset="0.4415" style="stop-color:#F2E27B"/>
			<stop  offset="0.5" style="stop-color:#F5F2C0"/>
			<stop  offset="0.5585" style="stop-color:#F2E27B"/>
			<stop  offset="0.7732" style="stop-color:#CB9B50"/>
			<stop  offset="1" style="stop-color:#462623"/>
		</radialGradient>
		<path class="st79" d="M424.8,288.3c0.1,0.1,0.2,0.2,0.3,0.3c-0.1-0.1-0.3-0.3-0.4-0.4C424.7,288.2,424.8,288.3,424.8,288.3z"/>
		<radialGradient id="SVGID_80_" cx="460" cy="231.5" r="455.195" gradientUnits="userSpaceOnUse">
			<stop  offset="0" style="stop-color:#462623"/>
			<stop  offset="0.2415" style="stop-color:#CB9B50"/>
			<stop  offset="0.4415" style="stop-color:#F2E27B"/>
			<stop  offset="0.5" style="stop-color:#F5F2C0"/>
			<stop  offset="0.5585" style="stop-color:#F2E27B"/>
			<stop  offset="0.7732" style="stop-color:#CB9B50"/>
			<stop  offset="1" style="stop-color:#462623"/>
		</radialGradient>
		<path class="st80" d="M432.1,296.3c0.2,0.2,0.4,0.5,0.7,0.8C432.6,296.8,432.3,296.6,432.1,296.3z"/>
		<radialGradient id="SVGID_81_" cx="460" cy="231.5" r="455.195" gradientUnits="userSpaceOnUse">
			<stop  offset="0" style="stop-color:#462623"/>
			<stop  offset="0.2415" style="stop-color:#CB9B50"/>
			<stop  offset="0.4415" style="stop-color:#F2E27B"/>
			<stop  offset="0.5" style="stop-color:#F5F2C0"/>
			<stop  offset="0.5585" style="stop-color:#F2E27B"/>
			<stop  offset="0.7732" style="stop-color:#CB9B50"/>
			<stop  offset="1" style="stop-color:#462623"/>
		</radialGradient>
		<path class="st81" d="M436.4,301.5c0.3,0.3,0.5,0.6,0.8,1C436.9,302.1,436.6,301.8,436.4,301.5z"/>
		<radialGradient id="SVGID_82_" cx="460" cy="231.5" r="455.195" gradientUnits="userSpaceOnUse">
			<stop  offset="0" style="stop-color:#462623"/>
			<stop  offset="0.2415" style="stop-color:#CB9B50"/>
			<stop  offset="0.4415" style="stop-color:#F2E27B"/>
			<stop  offset="0.5" style="stop-color:#F5F2C0"/>
			<stop  offset="0.5585" style="stop-color:#F2E27B"/>
			<stop  offset="0.7732" style="stop-color:#CB9B50"/>
			<stop  offset="1" style="stop-color:#462623"/>
		</radialGradient>
		<path class="st82" d="M440.1,306.3c0.5,0.7,0.8,1.1,1.2,1.7C440.8,307.3,440.4,306.7,440.1,306.3z"/>
		<radialGradient id="SVGID_83_" cx="460" cy="231.5" r="455.195" gradientUnits="userSpaceOnUse">
			<stop  offset="0" style="stop-color:#462623"/>
			<stop  offset="0.2415" style="stop-color:#CB9B50"/>
			<stop  offset="0.4415" style="stop-color:#F2E27B"/>
			<stop  offset="0.5" style="stop-color:#F5F2C0"/>
			<stop  offset="0.5585" style="stop-color:#F2E27B"/>
			<stop  offset="0.7732" style="stop-color:#CB9B50"/>
			<stop  offset="1" style="stop-color:#462623"/>
		</radialGradient>
		<path class="st83" d="M443.6,311.2C443.6,311.2,443.6,311.1,443.6,311.2c-0.2-0.3-0.3-0.5-0.5-0.7L443.6,311.2z"/>
	</g>
	<radialGradient id="SVGID_84_" cx="460" cy="231.5" r="455.195" gradientUnits="userSpaceOnUse">
		<stop  offset="0" style="stop-color:#462623"/>
		<stop  offset="0.2415" style="stop-color:#CB9B50"/>
		<stop  offset="0.4415" style="stop-color:#F2E27B"/>
		<stop  offset="0.5" style="stop-color:#F5F2C0"/>
		<stop  offset="0.5585" style="stop-color:#F2E27B"/>
		<stop  offset="0.7732" style="stop-color:#CB9B50"/>
		<stop  offset="1" style="stop-color:#462623"/>
	</radialGradient>
	<path class="st84" d="M439.5,305.6c-0.6-0.8-0.9-1.3-1.6-2.1C438.6,304.4,439.1,305,439.5,305.6z M435.1,299.8
		c-0.6-0.8-1-1.2-1.7-2C434.1,298.7,434.7,299.3,435.1,299.8z M428.8,292.6c0.7,0.8,1.2,1.4,1.7,1.8
		C429.8,293.7,429.5,293.3,428.8,292.6z M416.7,282.6c0.7,0.8,1.5,1.6,2.2,2.4C418.1,284.1,417.4,283.4,416.7,282.6
		C416.7,282.6,416.7,282.6,416.7,282.6z M386.3,258.2l-0.9-0.5c-40.5-19.9-162.5-12.9-200.8,17.6c-0.2,0.2-0.4,0.3-0.6,0.5
		c-0.1,0.1-0.2,0.2-0.3,0.3l-0.7,0.6c45.7-35.2,172.9-34.9,203.5-18.3L386.3,258.2z M373.4,251.5c1.3,0.6,2.2,1.1,3,1.5
		C375.3,252.4,374.7,252.1,373.4,251.5z M365.8,248.1c1.3,0.6,2.2,1,3,1.3C367.7,248.9,367,248.6,365.8,248.1z M357.9,245
		c1.1,0.4,1.9,0.7,2.5,0.9C359.6,245.6,358.9,245.4,357.9,245z M356.6,244.5l-1.1-0.4c-33.3-10.4-107-7-142.3,11.7
		c-0.3,0.2-0.6,0.3-1,0.5C252.9,235.7,327.7,234.9,356.6,244.5z M203,261.8c0.4-0.3,0.8-0.5,1.2-0.7
		C203.8,261.3,203.5,261.5,203,261.8z M195.6,266.8c0.9-0.6,1.6-1.1,2.2-1.5C197,265.8,196.5,266.1,195.6,266.8z M191,270.1
		c0.5-0.4,0.9-0.7,1.2-0.9C191.8,269.6,191.4,269.8,191,270.1z M190.1,270.8c0.3-0.2,0.6-0.4,0.8-0.6
		C190.7,270.3,190.5,270.6,190.1,270.8z M189.5,271.3c0.3-0.2,0.5-0.4,0.7-0.5C189.9,271,189.7,271.1,189.5,271.3z M184.2,275.5
		c0.1-0.1,0.2-0.1,0.3-0.2c0.6-0.5,1.2-1,1.8-1.5C185.5,274.5,185,274.9,184.2,275.5z M443.1,310.5c0.2,0.2,0.3,0.4,0.4,0.6
		c0,0,0,0,0.1,0.1L443.1,310.5z M441.3,308c-0.4-0.6-0.7-1-1.2-1.7C440.4,306.7,440.8,307.3,441.3,308z M437.2,302.5
		c-0.3-0.4-0.5-0.7-0.8-1C436.6,301.8,436.9,302.1,437.2,302.5z M432.8,297.1c-0.3-0.3-0.5-0.6-0.7-0.8
		C432.3,296.6,432.6,296.8,432.8,297.1z M424.7,288.2c0.1,0.1,0.3,0.3,0.4,0.4c-0.1-0.1-0.2-0.2-0.3-0.3
		C424.8,288.3,424.7,288.2,424.7,288.2z M383.8,256.8c-0.5-0.3-1.1-0.6-1.7-0.9c0.8,0.5,1.7,0.9,2.4,1.3
		C384.2,257.1,384,256.9,383.8,256.8z M379.8,254.7c-1.1-0.6-1.7-0.9-2.6-1.4C377.9,253.7,378.7,254.1,379.8,254.7z M372.5,251
		c-1.1-0.5-1.8-0.8-2.6-1.2C370.5,250.2,371.4,250.5,372.5,251z M364.7,247.6c-1.3-0.5-2.1-0.9-3.2-1.3
		C362.3,246.7,363.3,247.1,364.7,247.6z M210.9,257.1c0.5-0.3,0.9-0.5,1.4-0.8c-0.1,0-0.1,0.1-0.2,0.1
		C211.7,256.6,211.3,256.9,210.9,257.1z M207.8,258.9c-1,0.6-1.6,0.9-2.8,1.7C205.7,260.2,206.5,259.7,207.8,258.9z M201.5,262.8
		c-0.7,0.5-1.2,0.8-1.8,1.2C200.3,263.6,200.8,263.2,201.5,262.8z M195.2,267.1c-0.9,0.6-1.4,1-2.2,1.5
		C193.5,268.3,194.2,267.8,195.2,267.1z M189.1,271.6c-0.5,0.4-1.1,0.9-1.7,1.3C187.9,272.6,188.4,272.1,189.1,271.6z"/>
	<radialGradient id="SVGID_85_" cx="460" cy="231.5" r="455.195" gradientUnits="userSpaceOnUse">
		<stop  offset="0" style="stop-color:#462623"/>
		<stop  offset="0.2415" style="stop-color:#CB9B50"/>
		<stop  offset="0.4415" style="stop-color:#F2E27B"/>
		<stop  offset="0.5" style="stop-color:#F5F2C0"/>
		<stop  offset="0.5585" style="stop-color:#F2E27B"/>
		<stop  offset="0.7732" style="stop-color:#CB9B50"/>
		<stop  offset="1" style="stop-color:#462623"/>
	</radialGradient>
	<path class="st85" d="M385,257.5c0.4,0.2,0.8,0.5,1.3,0.7l0.3,0.2L385,257.5"/>
</g>
</svg>
